<?xml version="1.0" encoding="UTF-8"?>
<!DOCTYPE svg PUBLIC "-//W3C//DTD SVG 1.1//EN" "http://www.w3.org/Graphics/SVG/1.1/DTD/svg11.dtd">
<!-- Creator: CorelDRAW X7 -->
<svg xmlns="http://www.w3.org/2000/svg" xml:space="preserve" width="21.449mm" height="21.4522mm" version="1.1" style="shape-rendering:geometricPrecision; text-rendering:geometricPrecision; image-rendering:optimizeQuality; fill-rule:evenodd; clip-rule:evenodd"
viewBox="0 0 724 724"
 xmlns:xlink="http://www.w3.org/1999/xlink">
 <defs>
  <style type="text/css">
   <![CDATA[
    .fil1 {fill:#FEFEFE}
    .fil0 {fill:#0098DA}
    .fil2 {fill:#1B5083}
   ]]>
  </style>
 </defs>
 <g id="Capa_x0020_1">
  <metadata id="CorelCorpID_0Corel-Layer"/>
  <rect class="fil0" width="724" height="724" rx="108" ry="125"/>
  <g id="_345230002144">
   <g>
    <path class="fil1" d="M335 647c0,-5 7,-8 14,-8 -1,7 -7,8 -14,8zm40 8l-5 0c-2,0 -5,-1 -10,-4 -3,-1 -4,-4 -7,-6 -2,1 -3,2 -6,4 -10,6 -16,-1 -24,-7 -8,2 -21,11 -30,-6 -2,-4 -2,-3 -7,-4 -15,-4 -36,-13 -43,-15 0,12 3,20 3,31 -8,-1 -16,-13 -19,-20 -2,-4 -11,-21 -12,-26 -3,1 -2,2 -4,5 -10,-3 -9,-11 -14,-15 -1,2 -1,3 -1,5 0,1 2,6 -2,6 -4,0 -9,-10 -17,-16 -2,-1 -1,-1 -3,-1 0,5 -3,10 -3,16 -12,0 -25,-4 -35,-10 -3,-2 -5,-2 -6,-6 -2,-6 -3,-16 -4,-23 -1,-5 -2,-10 -2,-15l0 -7c0,-4 2,-7 6,-10 16,-7 47,4 60,4 -2,-8 -11,-34 -15,-45 -3,-7 -5,-15 -6,-23 -1,-6 -3,-15 -3,-21 1,-19 0,-36 -3,-55 -1,-12 -4,-24 -5,-36 0,-14 -1,-27 -1,-41 0,-14 -4,-26 -4,-37 0,-9 2,-15 2,-23 0,-10 -2,-17 -2,-26 0,-21 2,-44 5,-64 1,-11 3,-15 7,-23l5 -10c2,-3 4,-7 6,-10 8,-10 22,-22 36,-26 13,-3 31,-1 45,-1 10,0 9,-4 12,-4 4,0 8,0 12,2 -1,8 -7,16 -10,21 -8,11 -13,29 -1,39 2,2 14,5 16,5 3,0 10,-3 12,-5 -5,-1 -8,-2 -10,-5 4,-7 20,-8 21,-16 -2,-1 -4,-1 -7,-1 5,-7 12,-11 17,-17 8,-10 7,-5 5,-19l0 -18c0,-3 1,-5 2,-8 3,3 5,6 8,8 13,11 26,-2 36,-3 7,0 18,0 26,2 11,3 6,10 19,7 9,-1 22,-10 30,-2 9,8 -2,21 -2,20 0,0 -1,0 -1,0 -2,-1 -2,-1 -4,-3 -2,2 -5,3 -8,5 -12,7 -43,24 -43,38 0,7 4,15 9,18 13,8 50,2 61,-5 20,-11 11,-45 11,-57 0,-12 1,-12 16,-3 12,7 28,11 42,14 23,6 28,18 39,36 13,23 13,35 15,60 2,16 1,36 2,54 0,7 -1,11 -1,18l0 56c0,7 -1,11 -1,18 0,35 -4,53 -10,83 -5,27 -7,51 -16,78 -3,8 -7,19 -8,28 5,-1 12,-6 17,-9 5,-3 11,-6 17,-7 13,-4 24,-1 34,7 5,4 2,9 0,19 -2,14 -2,29 -16,35 -3,2 -9,3 -14,3 -5,0 -9,-2 -14,-3 -4,-1 -7,3 -11,5 -4,1 -6,5 -9,7 -2,0 -4,-2 -6,-2 -4,1 -9,7 -10,10 -1,7 -6,37 -12,37 -3,0 -6,-1 -7,-5 -1,-6 1,-14 -2,-26 -3,1 -4,2 -7,4 -3,1 -4,1 -8,2l-33 8c-4,2 -4,12 -9,12 -4,0 -6,-3 -12,-3 0,17 -17,10 -19,10 -6,0 -7,11 -17,11 -14,0 -12,-8 -18,-10 -3,2 -4,6 -7,8 -3,2 -6,4 -8,4zm-20 -17c1,0 14,1 16,3 0,1 1,6 -1,8 -3,3 -11,-3 -15,-11zm-28 -1c4,0 5,0 7,1l1 5 -4 1c-2,-2 -3,-3 -4,-7zm66 1c2,-2 16,-8 10,9 -3,0 -4,-1 -6,-3 -2,-2 -3,-3 -4,-6zm-16 12c-4,-3 -4,-4 -3,-10 2,-1 10,-2 12,-2 -2,5 -4,11 -9,12zm30 -4c-1,-9 3,-9 11,-11 -2,5 -6,10 -11,11zm-97 -5c-1,-3 -1,-3 0,-6 4,-1 7,0 11,1 -3,2 -5,6 -11,5zm-14 -9l12 3c0,3 -1,3 -3,5 -5,1 -8,-4 -9,-8zm134 6c-2,-2 -2,-2 -3,-6l13 -2c-1,5 -4,7 -10,8zm89 -4c-3,-5 -3,-11 -2,-17 0,-11 -1,-11 6,-15 0,8 1,27 -4,32zm-299 -28c3,1 5,3 8,4 4,1 5,2 7,6 2,4 5,14 4,20 -6,-3 -17,-22 -19,-30zm304 20c-1,-6 0,-11 0,-16 1,-8 0,-9 7,-11 -1,6 -5,23 -7,27zm-389 -41c8,-4 26,-9 34,-3l-1 14c-12,0 -26,-5 -33,-11zm184 -1l4 -27c6,7 10,8 10,15 0,3 -2,8 -3,10 -2,3 -8,2 -11,2zm222 4c-8,10 -56,26 -73,31 -27,6 -58,14 -86,16 -9,1 -17,0 -26,0 -26,0 -44,-2 -69,-8 -27,-6 -56,-17 -72,-31 0,-4 4,-10 5,-13 3,-3 6,-7 10,-8 0,10 -3,12 -6,19l11 6c1,-2 2,-2 2,-4 -4,1 -5,1 -8,-1 0,-4 1,-5 1,-8 3,0 3,0 5,2l1 2 1 -4c-4,-2 -9,-1 -4,-9 6,0 4,1 7,5l1 -3 -11 -6c0,-2 0,-1 2,-3 4,-2 12,-3 16,-2l16 10c13,6 24,8 40,10 38,5 54,8 95,4 11,-1 55,-6 63,-12 9,-5 26,-11 36,-15 14,-5 20,-10 33,7 3,4 8,11 10,15zm33 -10c1,-3 7,-6 11,-7 3,-1 6,-2 9,-2 3,0 6,0 8,2 -3,9 -17,12 -28,7zm-124 0c-6,-1 -15,-8 -9,-13 6,-6 10,6 9,13zm123 -27c1,3 1,3 1,7 -3,1 -1,1 -4,2 0,0 -6,-10 3,-9zm-150 -9c4,2 11,11 13,16 1,4 1,9 1,13 1,7 3,6 5,10 -3,2 -7,1 -11,1 -3,-10 -8,-29 -8,-40zm-70 47c-4,0 -6,-5 -7,-10 -1,-5 1,-8 1,-14 -1,-6 -2,-25 1,-31 1,4 3,10 3,14 -1,7 -3,6 0,14 1,4 3,8 4,13 0,3 1,5 0,8 0,3 0,4 -2,6zm214 -39c-1,-2 -1,-4 -1,-7 2,-1 2,-1 4,-1 3,5 1,7 -3,8zm-226 -28c4,4 2,26 2,33 0,12 1,23 2,34 -13,-2 -13,0 -8,-30 1,-11 -4,-31 4,-37zm-137 24c-3,3 -11,5 -19,13 -6,5 -9,11 -10,22 -6,-3 -10,-6 -19,-6 -8,0 -14,3 -21,4 -4,-7 -5,-20 -7,-29 -1,-6 -3,-9 3,-12 13,-7 33,-4 46,-1 5,2 23,7 27,9zm393 2l1 -8c6,1 6,8 -1,8zm-226 -8c1,-1 4,-3 6,-4 1,6 1,22 3,27 1,2 2,2 3,4 0,2 0,6 0,8 0,6 -1,9 -2,14 -13,-4 -7,-29 -10,-49zm-78 41c-23,0 -55,-19 -46,-31 5,-1 8,4 12,4 4,-1 0,-3 6,-2 13,3 7,-2 13,-2 6,0 12,4 23,1 0,-4 -6,-16 5,-13 0,7 -4,16 -6,22 -3,7 -4,15 -7,21zm216 -37l0 5c6,-2 0,-5 12,-6 6,-1 11,-1 17,0 -1,4 -4,7 1,9 3,-6 0,-9 9,-7 -1,3 -3,6 0,8 3,-1 1,-1 3,-4 4,-1 6,0 7,3 -1,3 -4,3 -2,8 4,-1 2,-2 4,-4 3,2 5,5 5,9 -3,2 -3,1 -5,4 -1,3 0,4 2,5 4,-2 -1,-3 4,-5 0,2 1,5 1,8 -2,1 -8,5 -10,6 -1,-9 3,-18 -3,-24 -4,-4 -15,-6 -23,-4 1,5 1,0 2,4 0,2 0,2 1,4 1,1 3,3 4,1 1,-2 -1,-1 -1,-4 5,-3 10,-2 14,1 -3,2 -7,5 -5,10 6,0 1,-3 5,-6l3 1 -1 9c-4,1 -7,1 -7,6 4,1 1,0 5,-2 3,5 1,9 -3,11 -5,-3 -13,-18 -19,-24 -14,-15 -21,-3 -31,-4 1,-1 4,-5 3,-9 0,-1 -5,-5 -6,-6 2,-7 12,-13 19,-7l-5 4zm-119 -24c6,0 6,3 7,9 1,5 1,10 4,13 -1,-6 -1,-9 1,-13 8,0 11,14 11,23 1,6 -1,11 0,17 0,5 3,9 2,15 -5,-2 -4,-12 -7,-17 -1,-4 -3,-2 -4,-8 -1,-3 -1,-8 -3,-10 0,0 0,0 0,0l-2 1c-1,1 -1,1 -2,2 1,7 6,9 8,15 1,5 0,5 0,10 -1,6 2,3 3,8 -4,0 -5,-2 -7,-4 -1,-2 -3,-5 -4,-7 -2,-5 -3,-10 -5,-16 -3,-12 -5,-25 -2,-38zm74 19c14,-7 10,-11 16,-13 4,6 3,20 -9,17 -1,0 -3,-1 -4,-2l-3 -2zm127 19l5 1c0,-4 -1,-7 1,-9 3,2 3,7 5,10 1,3 1,0 2,3 -3,1 -15,0 -20,1 -6,1 -11,3 -14,6l-2 -6c3,-3 6,-3 7,-6 4,-6 0,-8 -2,-10 2,-10 -4,-10 -10,-5 0,4 3,9 3,14 0,0 0,-1 0,-1 0,1 -2,-6 -6,-9 -2,-3 -5,-3 -8,-6 11,-8 43,-23 58,-10 1,8 -2,23 -5,29 -2,-2 -3,-6 -4,-10 0,0 0,0 0,0 1,0 13,-11 -7,-13 2,4 1,6 0,11 -1,7 0,6 -3,10zm-152 -27c4,3 7,6 11,10 8,8 2,0 13,5 13,6 17,14 23,2 0,-1 1,-1 1,-2l1 -1c4,3 8,7 10,12 -1,2 -4,7 -5,8 -3,2 -32,11 -34,11 -5,-6 -8,-12 -12,-20 -2,-5 -8,-19 -8,-25zm-109 7c4,5 5,9 3,16 -4,1 -5,1 -9,2 0,-6 1,-11 2,-17 0,-5 -2,-15 1,-19 3,0 5,4 6,7 2,6 0,8 -3,11zm95 -17c0,0 1,0 1,0 0,1 0,1 0,1l1 1c0,0 1,1 1,1 4,7 11,21 13,29 -5,0 -10,-7 -12,-11 -4,-7 -4,-12 -4,-21zm-70 10c9,4 13,15 14,24 1,8 1,18 1,26 0,3 0,6 -4,5l0 4c-5,0 -5,-3 -8,-5 2,-3 7,0 1,-15 -1,-2 -4,-10 -4,-13 0,-4 -1,-1 2,-3 -3,-9 0,-5 2,-11 0,-2 -3,-10 -4,-12zm-43 52l-15 -2c0,-8 1,-5 4,-10 2,-3 0,-3 1,-6 0,-3 1,-1 3,-3l-1 -6c13,-8 6,-5 6,-14 0,-3 0,-8 1,-11 0,-8 0,-12 10,-11 4,15 -6,48 -9,63zm72 -59c1,3 3,27 5,33 0,3 1,5 2,7 1,5 2,2 3,7 0,6 0,13 -4,16 -5,-5 -6,-37 -7,-48 -1,-6 -4,-13 1,-15zm59 5l11 -1c3,17 -10,6 -11,1zm26 -1c-1,5 -4,7 -9,8 -1,-2 -5,-9 -3,-12 2,-2 9,0 12,4zm-224 38c-16,3 -21,5 -31,22 -2,3 -3,9 -5,12 -6,-3 -10,-11 -4,-17 6,-6 2,-5 6,-7 7,-4 0,-5 7,-7 5,-1 1,0 5,-3 3,-3 3,0 4,-5 -6,-1 -7,2 -10,4 -2,1 -3,1 -5,3 -1,1 -2,3 -4,4 -2,2 -1,0 -3,4 -2,3 -1,3 -3,5 -7,5 2,4 -9,6l-2 7c-6,-4 -8,-12 3,-17 0,-5 0,-6 4,-8 8,-3 4,-2 7,-6 3,-3 15,-6 18,-7 -3,-6 -9,-2 -13,-1 -2,1 -5,2 -7,3 -3,2 -2,4 -4,6 -2,1 -4,2 -6,4 -3,2 -2,3 -4,6 -2,2 -4,2 -5,5 -1,2 0,4 -2,7 -10,-1 -2,-14 0,-17 10,-15 22,-15 32,-21 4,-2 5,-4 10,-4 6,0 6,3 11,1 -1,-5 -6,-3 -10,-5 4,-5 7,2 14,0 -2,-5 -6,-4 -10,-6 6,-5 6,1 12,-2 -2,-3 -4,-3 -8,-4 2,-4 5,-9 12,-5 6,4 3,8 0,13 -4,9 -8,24 0,30zm128 -38c-4,17 -14,9 -11,-6 2,-15 14,-10 11,6zm116 7c4,1 8,-3 11,-5l5 4 -4 2c-1,0 -3,0 -4,1 -3,2 -2,3 -4,6 -3,-2 -5,-3 -7,-8 -2,-3 -1,-8 0,-12 6,-3 10,0 12,4 -3,2 -10,4 -9,8zm-210 -10l16 7c2,1 2,1 1,4 -7,1 -15,-7 -17,-11zm17 -2c4,-1 8,-1 13,-1l0 9c-3,-1 -5,-2 -8,-3 -6,-3 -4,-2 -5,-5zm-34 0c9,2 30,14 32,25 -22,0 -19,-5 -28,-8 0,3 1,5 2,7l-9 -2 -3 3c-4,-1 -6,-2 -7,-5l11 1c2,-6 -5,-6 1,-14 6,2 16,11 21,11 -4,-3 -18,-14 -20,-18zm146 -5c2,2 8,9 10,12 4,8 2,20 7,37 1,4 5,12 4,17 -12,-2 -13,-20 -13,-30 0,-14 -5,-24 -8,-36zm-165 -14c2,4 3,8 6,11 3,4 7,3 10,8l-7 6c-2,-3 -2,-5 -5,-7 -4,-2 -6,-2 -11,-2 0,-6 5,-14 7,-16zm195 18c3,-3 11,-5 16,-5 -2,10 -13,8 -16,5zm27 -4c4,-2 14,-2 19,-2 -2,4 -17,16 -19,2zm24 1c0,-7 2,-15 7,-17 3,2 3,7 2,10 -2,4 -5,6 -9,7zm-143 -3l-11 0c2,-2 4,-3 6,-4 3,-2 4,-3 6,-6l5 3 -3 4c-1,1 -2,2 -3,3zm26 -9c3,1 8,9 6,12 -2,-1 -1,2 -3,-5 -1,-2 -2,-5 -3,-7zm-17 18c-7,-5 3,-14 7,-18 3,-2 3,-3 6,0 -3,3 -2,-2 -8,8 -2,3 -3,8 -5,10zm15 -20c-4,-3 -4,-5 -1,-9 3,0 5,1 5,4 0,3 -2,5 -4,5zm20 -2c-4,-1 -9,-2 -6,4 2,4 4,6 6,10 -8,-2 -10,-4 -10,-12 -6,0 -2,0 -5,0 0,0 0,-1 0,-1 1,-7 1,-4 -2,-9 4,-2 6,-4 9,-6 2,-2 5,-6 9,-6 9,0 2,16 -1,20zm-43 -19c5,1 18,8 20,10 -2,5 -3,3 -2,10 -7,0 -13,1 -17,-4 -3,-5 -4,-10 -1,-16zm-123 45c-3,-13 4,-44 8,-57 6,-22 7,-50 10,-57 2,21 0,44 2,66 0,14 -3,17 -8,26 -2,5 -3,8 -5,12 -1,2 -2,4 -3,6 -1,2 -2,4 -4,4zm273 -84c1,2 1,4 1,6 1,14 2,35 4,47 7,-2 10,-23 11,-30l8 -33c1,32 1,64 2,95 0,7 0,7 -4,10 -5,-4 -15,-11 -19,-15 2,-7 5,-9 3,-19 -1,-7 -4,-10 -7,-16 -1,-5 1,-37 1,-45zm-191 30l126 0c-3,2 -4,2 -6,4 -4,-3 -5,-4 -9,1 -7,-2 -4,-4 -11,2 -4,-2 -3,-3 -8,1 0,-1 0,-1 0,-1 -1,2 0,-1 -3,-2 -1,-1 -3,-1 -5,0 -3,0 -5,1 -7,3 -3,2 -8,9 -14,7 -7,-1 -13,-12 -22,-8 -4,1 -4,3 -6,5 -2,-4 -6,-7 -10,-4 -4,-4 -4,-4 -12,-3 -3,-4 -5,-6 -9,-1l-4 -4zm44 -7c4,-2 26,-1 31,0 1,6 -3,5 -15,5 -13,0 -17,2 -16,-5zm-17 1c1,6 -8,4 -14,4 -4,0 -15,2 -17,-2 -4,-6 11,-4 13,-4 5,0 14,-2 18,2zm91 4c-7,0 -26,2 -31,-1l0 -4c4,-2 28,-2 32,0l-1 5zm-47 -14c1,4 0,5 -4,5 -6,0 -23,1 -28,-1 -1,-6 4,-5 14,-5 5,0 15,-1 18,1zm-79 5l-1 -6c7,-1 11,0 17,0 6,0 13,-2 15,3 -2,5 -8,3 -14,3 -6,0 -11,1 -17,0zm91 -5c4,-3 10,-1 16,-1 6,0 12,-2 16,2 -1,5 -7,4 -16,4 -16,0 -16,1 -16,-5zm-104 -3l8 0c1,4 6,14 7,19 -2,-2 -2,-3 -4,-4 -4,-1 -3,1 -4,-1 0,-16 -7,-4 -7,-14zm192 2c5,-2 9,-1 15,-1 5,63 -10,59 -48,59 -6,0 -12,0 -18,0l-15 0c-4,-1 3,0 -1,-1 0,0 0,0 -1,0 0,0 0,0 0,0l1 -1c12,-2 5,-3 11,-1 6,2 9,1 10,-4 6,-1 10,0 8,-7 5,0 12,-2 10,-7 12,-2 9,-1 11,-9 2,0 4,-1 6,-2 2,-2 1,-4 2,-6 1,-2 5,0 6,-7 1,-3 0,-1 2,-3 3,-3 9,-3 1,-10zm-222 6c2,2 5,3 8,4 -1,6 1,8 6,10 1,5 -1,6 9,7 0,11 9,3 10,9 1,7 -1,5 10,7 3,6 -2,6 8,6 2,12 7,5 14,3l2 4 6 -2 1 4c-3,1 -13,1 -18,1 -65,0 -65,-1 -62,-60 4,0 9,-1 12,1 -2,3 -5,1 -6,6zm181 8c-3,-8 8,-19 12,-21 2,7 -1,8 -4,12 -2,3 -4,8 -8,9zm-116 -19l-16 -2c4,-3 6,-4 16,2zm113 7c-4,-5 1,-9 3,-11 3,-4 4,-8 9,-9 3,6 0,7 -3,12 -2,3 -4,7 -9,8zm-67 -19c-3,-7 6,-10 8,-4 2,7 -6,11 -8,4zm168 98c-3,0 -6,-1 -8,-3 -1,-1 -5,-138 2,-150 4,12 3,18 8,36 2,3 2,4 5,6 4,3 3,2 2,8 -3,33 -5,71 -9,103zm-67 -101c3,1 2,2 5,3 2,0 4,-1 6,-2 -2,5 -7,5 -8,10 1,1 1,0 3,1l3 1c-3,4 -11,5 -11,10 3,1 5,0 9,0 -2,6 -14,5 -15,12 4,2 6,-5 10,-1 -4,5 -14,1 -15,7 4,0 5,-1 8,0 -2,6 -9,0 -14,5 2,1 4,1 5,3 -3,4 -14,1 -20,4 3,6 9,-1 10,6 -5,1 -14,-1 -17,1 2,4 4,1 7,4 -1,1 -1,1 -2,1 -1,0 -1,0 -2,0 -4,0 -6,-2 -11,-1 2,5 9,2 7,7 -6,4 -11,-8 -18,-6 0,4 3,2 4,6 -5,-1 -5,-6 -11,-7 1,6 6,5 3,11 -4,-1 -9,-6 -8,-13 4,-12 2,-15 7,-15 1,7 -3,6 -2,12 6,-2 4,-13 12,-14 0,7 -3,7 -3,13 6,0 7,-14 13,-15 3,6 -7,13 -4,18 6,-3 7,-18 14,-20 0,5 -2,6 0,9 6,-2 2,-13 10,-15 2,3 1,4 3,6 5,-4 -1,-13 5,-16 5,4 0,7 5,10 3,-4 -2,-10 0,-17 7,1 1,4 7,5 3,-4 1,-12 2,-18 1,1 0,1 1,1 3,2 0,1 3,2 1,-4 -1,-5 -1,-8zm-199 8c3,-1 2,-2 4,-3 1,6 -1,13 1,18 7,-1 1,-5 8,-5 2,8 -4,13 0,17 5,-4 0,-7 5,-10 1,1 2,0 2,7 1,4 0,5 2,8 3,-1 1,-2 4,-4 7,2 4,11 10,14 1,-3 0,-5 0,-8 7,2 7,18 15,19 0,-6 -7,-12 -5,-18 2,0 3,1 4,3 3,4 5,11 8,13 3,-4 -3,-6 -2,-14 7,1 5,12 12,14 1,-6 -6,-8 -2,-12 3,2 10,10 10,15 -1,4 -7,13 -12,13 -3,-6 3,-5 4,-11 -7,0 -7,7 -11,7 0,-4 2,-1 4,-5 -6,-3 -12,8 -19,5 1,-6 5,-1 7,-7 -5,-2 -10,3 -14,0 3,-3 6,0 6,-4 -5,-2 -14,2 -17,-2 2,-5 7,0 10,-4 -5,-5 -17,0 -20,-5 2,-2 3,-1 6,-3 -2,-2 -2,-2 -7,-2 -5,0 -6,1 -7,-3 3,-1 2,0 6,0 5,-1 -5,2 2,-1 0,0 0,0 0,0 -1,-2 0,-2 -3,-2 -5,-1 -10,0 -12,-5 5,-2 6,3 10,2 -1,-6 -13,-5 -16,-12l9 0c0,-7 -9,-5 -11,-12l6 0c0,-5 -5,-5 -7,-10 10,2 3,2 11,-1 -1,4 -2,3 -1,8zm148 7l-90 0c4,-2 9,-2 13,-6 3,-2 3,-8 5,-13l18 0c0,7 -1,15 8,15 9,0 8,-7 8,-15l18 0c3,9 1,16 19,18 5,0 11,-1 15,-3 5,-3 2,-8 1,-14l13 0c0,2 -8,11 -9,14 -6,6 -3,4 -19,4zm-227 -25c9,2 5,2 9,-3 1,7 1,18 2,26 3,44 10,31 12,43 1,11 1,15 9,19 1,5 1,10 0,15 0,7 -1,8 -6,10 -3,-8 -6,-12 -10,-23 -4,-11 -11,-29 -12,-40 0,-6 1,-11 1,-17 0,-5 -3,-8 -3,-13 -1,-3 0,-5 0,-8 0,-3 -1,-6 -2,-9zm207 -92l0 95 -18 0c0,-11 -1,-47 0,-56 1,-6 16,-36 18,-39zm-29 92l0 -96 6 0 0 96 -6 0zm-103 5c3,-2 1,-1 3,-4 1,-1 2,-1 3,-2 -1,3 -5,9 -6,11 -3,-1 -6,-3 -8,-5 3,0 3,1 6,0 -1,-7 -9,-1 -8,-9 4,1 0,1 4,2 7,1 4,-8 10,-10 0,4 -1,6 -2,9 -1,1 -3,4 -3,5 0,3 1,2 1,3zm203 -17c6,2 4,10 10,10 4,0 1,-1 5,-3 0,10 -7,3 -8,11l6 -2c-2,3 -5,5 -8,6 -2,-2 -6,-7 -6,-11l5 5c3,1 0,0 1,0 1,-2 -1,-4 -2,-7 -2,-3 -2,-6 -3,-9zm-8 37l-9 0 -3 -16c-1,-6 -1,-4 -12,-4l-12 0c-5,1 -3,5 -9,4 -5,-3 -4,-14 -4,-22l0 -78c11,-2 14,2 24,11l55 45c4,3 3,4 3,13l0 47 -12 0c2,-2 2,-2 2,-6l-4 -2c5,-3 6,-3 5,-9l4 -3c0,-6 -2,-1 0,-8 1,-4 -1,-5 -3,-8 1,-2 3,-6 2,-9 -4,-3 -6,0 -9,2 -2,-3 -4,-5 -8,-5 -1,2 -1,3 -2,5 -1,3 -3,2 -4,4 0,3 1,4 1,6 0,3 -2,3 -2,6 0,3 2,4 1,7 -1,3 -2,0 -3,4 -1,4 -1,11 -1,16zm-200 -45c-3,-1 -3,-2 -7,-2 -2,4 -2,5 -1,10 1,6 -2,4 0,10 0,3 0,4 0,6 0,3 1,2 2,5 1,7 -2,2 3,8 -3,5 -2,3 0,8l-8 0c0,-16 0,-33 0,-49 0,-9 2,-8 10,-15 4,-4 9,-7 13,-12l19 -16c7,-7 15,-11 21,-17 4,-4 8,-10 16,-9 2,8 1,41 1,51 0,11 2,44 -1,51 -10,2 -3,-6 -16,-4 -3,4 -2,7 -3,12 -2,2 -10,7 -12,8 -3,1 -15,0 -19,0 -1,-5 4,-12 -4,-15 0,-1 1,-4 1,-4 0,-2 -1,-2 -2,-4 2,-2 3,-3 4,-6l-4 -2c1,-7 3,-8 -3,-12l0 -6c-5,0 -8,1 -10,4zm238 -15c1,0 8,12 8,12 2,4 1,16 1,21 0,7 1,36 -1,41 -2,-4 -8,-66 -8,-74zm13 69c-3,-8 -1,-49 0,-59 1,-7 5,-16 6,-25 2,-7 1,-23 3,-28 2,24 0,94 -9,112zm-149 -31l-17 0 0 -94c3,6 16,34 17,39 1,6 0,19 0,27 0,9 0,18 0,28zm-192 -42c4,2 5,11 7,17 4,15 14,47 14,59 0,10 -2,11 0,22 4,17 17,41 20,53 -5,-1 -13,-2 -15,-7 -3,-7 -5,-10 -5,-19l-3 -1c-1,-6 -5,-16 -7,-22 -8,-20 -1,-14 -1,-23 -3,-2 -6,-2 -7,-7 0,-3 3,-4 4,-9 -1,-1 -2,-2 -4,-4 2,-16 2,-12 0,-30 -1,-5 -4,-26 -3,-29zm32 -19c5,8 0,5 9,12 1,1 1,1 1,1 -1,8 -3,12 -2,20 4,3 4,4 4,10l1 41c1,9 2,17 3,26 1,7 3,17 3,25 -3,-13 -15,-31 -17,-61 -2,-20 4,-29 0,-56 -1,-6 -3,-12 -2,-18zm-38 -2c2,1 5,3 5,6 1,2 1,8 1,10 -2,-4 -6,-10 -6,-16zm7 -18c3,4 5,11 7,15 5,10 7,1 6,17 0,7 0,14 0,21 -1,8 1,16 1,22 -3,-5 -9,-27 -10,-35 -4,-17 -5,-21 -4,-40zm63 29l9 0c1,3 -1,6 -3,9 -3,-1 -2,-2 -5,-1 -3,9 4,-1 2,25 0,9 -1,18 -2,27 -2,8 -5,14 -8,22 -1,4 -2,9 -2,13 -1,4 0,9 -1,14 -11,-46 -2,-47 -5,-61 -2,-9 -3,-10 -2,-20 1,-8 5,-10 7,-16 10,-26 1,-26 8,-39 8,-14 5,-13 7,-17 2,7 3,17 2,25 0,15 -5,12 -7,19zm-70 -11c-2,-4 -2,-11 -2,-16 0,-6 1,-4 3,-7 1,-2 0,-6 0,-9 4,7 -1,23 -1,32zm32 59c-8,1 -8,-11 -8,-18 -1,-18 2,-62 5,-79 3,3 2,9 5,15 2,3 2,2 2,5 -9,25 0,68 -4,77zm307 -39c-2,-1 -1,0 -2,-1 0,0 -1,-2 -2,-2 -5,-6 -3,-31 -2,-37 0,-12 1,-11 6,-18 4,-5 2,-12 5,-18 5,5 3,17 7,21 1,2 2,2 3,3 1,1 1,1 2,2 -4,12 -5,16 -7,29 0,8 -1,16 -2,24 -1,2 -1,4 -4,6 -4,-19 0,-40 -1,-60 -2,2 -4,8 -4,11 -1,3 0,9 0,13 1,6 2,22 1,27zm-157 -57l17 0 -1 36 -16 -36zm33 36l0 -36c5,-1 11,-1 16,0 0,2 -6,15 -7,18l-8 16c-1,1 0,1 -1,2zm28 -17c0,17 0,79 1,84 2,8 12,12 15,6 0,-1 0,-1 1,-2 0,0 0,-1 0,-1l0 -1c11,1 6,15 -7,13 -21,-4 -16,-22 -17,-48l1 -80 18 0 0 10c-3,3 -3,2 -7,2l-1 -4c4,4 4,0 4,-3 -10,0 -8,-4 -8,24zm-60 -27c3,-2 42,-1 49,-1l0 4 -49 0 0 -3zm-16 6c-1,6 -6,4 -9,2l0 -10 19 0c1,29 0,59 0,88 0,14 3,30 -7,36 -5,3 -11,5 -17,3 -7,-2 -8,-11 1,-12l2 6c14,2 14,-5 14,-18 0,-19 2,-89 0,-98l-7 0c-1,5 1,5 4,3zm-121 48l-6 -16c-1,-3 1,-15 1,-20 0,-8 -2,-13 -1,-20 1,-5 3,-12 6,-16 2,3 5,11 8,15 3,4 -1,5 -3,17 -4,14 -3,34 -5,40zm16 -43c0,1 11,12 2,23 -3,-1 -3,-1 -7,-1 -1,7 3,2 3,8l-2 0c0,0 -1,0 -1,0 0,3 1,5 0,8 0,3 -1,5 -1,7 -1,6 -1,12 -3,16l-4 1c0,-5 6,-52 8,-62 2,-9 7,-6 11,-17 2,-3 3,-8 5,-10 3,5 3,12 1,18 -3,11 -3,11 -12,9zm98 -29l95 0 0 13 -95 0 0 -13zm-131 -13c4,2 4,9 5,14 1,6 2,14 -3,16 -1,-1 -1,0 -3,-6 -1,-5 -1,-20 1,-24zm27 2c2,4 1,15 1,20 -7,-6 -6,-15 -2,-19 1,-1 0,-1 1,-1zm-18 20c-1,-8 -2,-20 3,-25 4,6 1,22 -3,25zm-29 -32c5,-1 4,1 8,5 3,2 3,3 5,7 4,6 3,15 3,22 0,14 1,37 -4,48 -8,-2 -17,-25 -20,-36 -3,-16 -5,-37 1,-51 1,0 1,0 1,1l2 7c2,19 2,60 9,69 9,0 5,-8 3,-14 -3,-14 -9,-47 -8,-58zm65 13c3,-2 2,-3 5,-4 3,7 -3,1 1,9l-2 3c3,3 1,2 0,5 0,4 2,1 0,7 -3,-3 -3,-10 -4,-15 0,-2 0,-3 -1,-5 -2,6 -4,5 -6,9 -2,3 -3,8 -6,10l2 -21c1,-10 3,1 5,-18 1,-2 1,-5 1,-7 1,-8 1,-5 3,-6 5,5 2,25 2,33zm311 29c-6,-5 -5,-31 -12,-36 -10,5 -3,43 -9,53 -5,-1 -4,-8 -5,-12 -1,-13 1,-37 -5,-43 -8,7 1,26 0,37 -3,-2 -4,-5 -5,-9l-3 -9c-1,-1 -1,-1 -1,-1 -5,6 -8,23 -12,29l2 -51c4,0 7,5 12,2 4,-3 4,-6 12,-3 11,4 11,4 20,-8 4,0 6,2 8,4 9,7 11,-1 7,30l-3 21c0,1 0,1 -1,2 0,-9 -2,-44 -5,-49 -5,6 3,33 0,43zm22 -64c5,0 5,4 5,13 0,5 1,13 0,17 -1,5 -2,2 -3,6 0,2 2,4 2,7 1,14 0,11 -3,15 3,5 4,1 3,9 -1,5 -1,8 -1,13 0,7 0,19 -1,25 -3,2 -4,1 -6,4 2,3 4,-1 5,8 0,2 0,5 0,6 -1,4 -1,4 -4,4 -2,0 -6,-1 -2,7 2,4 3,6 4,10 -3,1 -3,0 -4,1 -1,6 2,10 2,15 -1,10 -5,8 -8,10 1,5 2,2 1,9 -1,3 -1,6 -1,10 -1,4 -3,4 -3,8 1,4 3,5 2,10l-7 1c1,6 5,6 6,12l-6 0c0,4 1,5 1,10 0,7 -1,5 -4,9 0,0 3,10 1,15 -2,3 -1,1 -4,2 0,10 -1,5 -2,10 -1,3 0,6 -2,9 -5,-8 2,-72 3,-90 0,-7 -1,-11 4,-15 14,-11 8,-40 12,-65 3,-11 5,-20 6,-33 1,-12 1,-24 3,-36 3,-17 0,-21 0,-32l1 -4zm-410 29c-2,-2 -5,-4 -5,-9 1,-4 2,-8 3,-11 4,1 5,3 8,4 -2,3 -3,1 -4,7 -1,3 -1,7 -2,9zm53 -3c2,-2 3,-3 4,-5 0,-2 1,-4 1,-6 2,-5 3,-8 7,-9 6,9 -5,27 -14,28 -9,-14 -6,-31 2,-28 1,7 -3,15 0,20zm133 -36c7,6 6,28 13,32 3,-9 0,-31 4,-38 1,11 0,29 9,35 7,4 5,-2 11,-1 0,6 -3,8 -2,15 7,0 8,-5 14,-6l-3 14 -44 0c-1,-11 -4,-4 -7,-11 -2,-3 -3,-10 -3,-14l9 4c-2,-7 -4,-23 -1,-30zm-169 9l4 5c2,3 1,15 8,17 8,-4 0,-23 12,-23 4,7 1,13 -1,20 -2,6 -5,14 -12,12 -6,-2 -24,-27 -11,-31zm-19 1l0 -12c14,-1 18,19 6,20 -4,-4 1,-4 -6,-8zm75 -3c4,-4 4,-14 4,-21 1,0 1,0 1,1 3,4 4,23 -6,24 -3,-7 -4,-13 -4,-22 10,1 2,14 5,18zm-20 7c-3,-1 -5,-5 -6,-9 -2,-3 -4,-9 -2,-13 2,1 1,-1 3,6 1,2 2,3 4,5 6,-3 3,-8 7,-14 7,0 4,9 2,13 -1,5 -4,10 -8,12zm-29 -35c-1,8 -1,17 3,22 7,-2 4,-12 7,-17 3,1 8,9 7,14 -1,5 -8,7 -14,7 -12,0 -7,-3 -8,-11 0,-7 -4,-13 5,-15zm377 37c5,0 3,0 6,3 0,3 -1,5 -2,9 -1,10 2,22 0,34 -2,14 -6,2 -7,38 -1,14 -7,70 -13,78 -6,-2 -8,-21 -10,-29 -2,-13 -4,-23 -5,-36 0,-4 -4,-13 -3,-15 0,-4 3,-11 4,-16 3,-11 3,-25 5,-35 5,8 7,52 6,63 -2,11 -7,57 2,62 2,-13 2,-28 3,-41 0,-8 -1,-14 -1,-22 0,-4 4,-6 8,-14 3,-7 9,-55 9,-67l-2 -8c0,-2 0,-1 -1,-2l-2 5c-7,-1 -13,-7 -16,-13 -5,2 -7,14 -12,18 -5,-2 -8,-6 -15,-6 -2,3 -2,7 -5,9 -3,1 -8,0 -11,-2 -4,-4 -4,-17 -2,-24l6 3c1,11 -3,19 3,19 1,-5 -1,-11 0,-16 1,-4 5,-9 8,-10 6,0 4,3 11,2 0,13 -3,17 3,17 3,-5 -3,-14 1,-21 2,-2 10,-10 13,-11 1,1 1,3 4,4 0,0 0,0 0,0l2 0c1,8 -2,19 2,25l6 0c0,-12 -1,-15 -4,-25 0,-4 7,-10 13,-16 8,-9 4,-8 6,-12 4,3 3,15 3,21 1,7 2,17 -4,21 -7,-4 -3,-16 -8,-21 -2,3 -2,25 -1,31zm-404 -39c4,-1 6,2 8,5 -1,0 -1,0 -2,0 -1,0 0,-1 -2,0l0 4c5,1 8,-3 10,-5 4,-4 0,-6 5,-8 2,7 -3,21 -8,23 -7,3 -12,-11 -11,-19zm70 -11c0,3 -1,11 1,13 4,-2 1,-10 6,-15 7,3 7,19 -4,20 -11,2 -13,-17 -3,-18zm270 6c4,-1 15,10 19,0 3,-6 1,-5 4,-7 1,10 -4,18 -10,21 -11,5 -16,-8 -13,-14zm-143 30c-7,-1 -7,-6 -13,-8 2,10 4,14 2,25 -5,-2 -5,-5 -12,-6 2,4 4,2 4,9 1,3 1,7 1,11 3,20 5,11 6,18l-23 0c-1,7 0,13 0,20 -1,9 -3,7 -8,12 -7,6 -14,12 -22,18 -10,9 -20,18 -32,27 -4,4 -8,8 -10,9l0 -169c4,-2 157,0 183,0 10,0 54,-1 61,0 2,26 1,56 1,82 0,27 0,56 -1,83l-62 -50c-6,-4 -7,-4 -7,-13 1,-7 1,-12 0,-19l-20 0c3,-5 5,-5 7,-15 1,-6 2,-14 0,-20l-3 4c0,-1 0,0 -1,-1 -3,-4 -6,-18 -11,-22 -1,1 -2,3 -3,5 -3,-4 -5,-8 -8,-11 -8,-8 -4,-6 -7,-11 -3,1 -2,2 -4,3 -2,-5 -1,-8 0,-13 -17,1 -16,26 -18,32zm-170 -41c5,2 2,6 4,11 4,-1 3,-6 5,-10 1,4 3,8 3,13 -1,19 -23,-7 -12,-14zm373 -10c4,2 6,5 7,8 3,5 3,7 0,12l-5 0c-1,4 -2,10 -5,12 -4,4 -9,-1 -14,-1 -7,12 -8,17 -25,11 -4,4 -6,13 -12,11 -7,-1 -9,-9 -7,-17 12,1 4,7 9,13 2,-2 1,-5 2,-8 4,-3 6,-1 10,-7 2,-3 4,-8 5,-12 5,4 2,13 2,18 8,-2 -3,-12 10,-13l1 4c6,-2 9,-13 11,-20l5 4c5,-3 6,-8 6,-15zm-398 5l3 4c11,1 7,-1 14,-3 1,7 -2,18 -9,18 -6,-1 -13,-12 -8,-19zm47 23c2,-3 1,-7 3,-10 5,1 8,5 8,11 -12,2 -5,4 -13,4 -4,-7 -7,-11 -7,-22 3,-1 2,-3 6,-4l0 2c1,3 -1,9 1,15 0,3 0,4 2,4zm11 -18c3,-5 2,-7 6,-11 8,4 0,12 -3,15 -7,6 -12,-3 -10,-11 5,1 4,3 7,7zm340 -10l-2 0c-1,10 -2,9 -13,8 0,7 -1,16 -8,16 -7,0 -14,-6 -11,-13 5,-2 7,1 15,-4l0 -8c6,-2 6,1 11,0 1,-4 1,-8 4,-11 3,3 5,6 4,12zm-53 1c1,-8 6,-14 9,-19 2,1 2,2 2,4l1 14c1,6 2,15 -1,19 -4,4 -11,1 -14,-2 -5,-4 -3,-6 2,-12 4,5 -1,10 7,11l-1 -17 -5 2zm-345 1c-4,-19 7,-10 9,-10 4,-1 3,-2 8,-1 3,8 -6,17 -17,11zm80 4c-5,-1 -17,-17 -9,-23 3,2 8,18 9,23zm293 -1c-6,1 -9,1 -12,-3 -4,-7 2,-6 6,-7 5,-1 6,-4 10,-6 2,-1 3,-1 5,-3 2,-2 1,-2 4,-3 1,1 1,2 1,6 0,2 0,4 -1,6 -3,1 -4,-3 -11,-2 -1,5 1,7 -2,12zm-324 -11c4,-4 1,-13 8,-12 3,8 -4,15 -10,16 -2,-4 -6,-12 1,-15 0,4 -1,8 1,11zm-10 -7c8,10 -3,28 -15,18 -5,-5 -6,-7 -2,-15 3,-7 3,-11 11,-11 2,6 0,6 0,13 2,-2 3,-4 6,-5zm48 27l-12 -34 275 0c0,3 -6,14 -8,17 -1,3 -8,16 -9,17l-246 0zm282 -35c3,7 -3,11 -9,11 0,-12 -1,-8 -2,-13 3,1 9,1 11,2zm28 6c-2,3 -7,-5 -8,-8 1,-1 4,-1 6,2 2,1 3,4 2,6zm-84 -10c3,-1 7,-3 11,-4 2,2 2,4 11,3 5,-1 7,-2 10,1 -3,3 -12,2 -16,2 -5,0 -13,0 -16,-2zm-247 -3c3,0 3,1 5,2 -1,3 -2,3 -6,4l1 -6zm-62 14c-2,-10 -1,-12 2,-20 4,1 4,3 8,4 3,1 6,2 8,2 -1,5 -2,10 -5,13 -3,4 -7,3 -13,1zm276 -10c-5,-2 -17,1 -23,2 -4,0 -8,1 -13,0 -4,0 -7,-1 -11,-1 -8,1 -7,0 -12,-2 -5,-1 -7,2 -10,2l-1 -4c9,1 5,1 8,-2 13,8 6,-1 17,2 12,4 12,1 19,0 6,0 14,2 20,1 4,-1 6,-2 9,-2 6,0 4,1 7,4 1,0 9,-8 13,1 -4,0 -8,1 -12,1 -10,1 -6,1 -11,-2zm-253 -2c-1,-3 0,-9 2,-12 2,3 7,14 -2,12zm164 -3c0,3 -1,3 -2,4 -3,0 -3,-1 -4,-2 -4,1 -5,1 -9,-1 1,-8 7,-1 8,-1 3,-2 3,-4 7,0zm-135 8c1,-4 1,-4 4,-6 3,-3 1,-2 5,-4 -1,6 -3,10 -9,10zm304 -9c3,-6 12,-5 10,3 -4,2 -7,-2 -10,-3zm-111 -5c2,-1 12,-2 15,-2 3,-1 6,-1 9,0l5 1c1,1 1,1 1,1 -4,2 -3,-1 -8,0 -4,1 -3,2 -8,1 -6,-1 -3,0 -7,1 -3,0 -6,0 -7,-2zm-203 -4c12,2 13,14 -1,19 -12,4 -14,-20 -5,-22 2,8 -7,17 1,19 2,-5 1,-11 5,-16zm133 4c0,-1 0,0 1,-1 16,-12 23,-2 10,1 -3,0 -7,0 -11,0zm188 -3c-7,3 -10,6 -14,-2 -3,-5 -4,-11 2,-14 6,2 2,4 7,7 4,3 5,4 5,9zm6 -2c-4,-3 -4,-6 -4,-11 6,1 7,7 4,11zm-322 -1c-10,-12 1,-17 8,-9 4,5 0,6 7,10 7,4 15,6 22,10 -3,0 -11,-1 -15,-1 -4,-1 -3,-2 -5,-4 -3,-2 -13,-1 -17,-6zm88 -2c2,-1 4,-2 6,-3 4,-2 6,-8 20,-10l2 7c-4,3 -21,6 -28,6zm244 25c-5,0 -12,-12 -10,-19 4,-3 6,-1 10,0 -1,-5 -8,-10 -6,-17 3,1 5,9 7,12 2,4 7,7 5,13 -2,-1 -1,-1 -3,-3l-2 -3c0,0 0,0 0,-1 0,6 3,13 -1,18zm-164 -30c-7,-4 -3,-13 -2,-15 2,3 2,11 2,15zm-184 -6c2,-3 2,-6 5,-8 7,4 4,25 -8,17l2 -13 1 4zm34 -3c2,0 5,0 8,0 3,-1 2,-2 7,-2 2,5 3,9 2,16 -3,-2 -6,-5 -8,-8 -4,-3 -5,-3 -9,-6zm174 21c4,5 -1,7 14,4 11,-1 15,4 27,-1 5,-3 15,0 26,-4 9,-4 11,-14 19,-20 5,-4 21,-10 30,-8 1,6 -1,6 -6,7 -2,1 -6,4 -7,6 -1,3 1,6 1,10 1,4 3,4 5,8l-5 1c0,-8 -2,-5 -6,-8 -2,-8 4,-11 -4,-14 0,4 2,7 -2,9 -1,1 -3,1 -4,2 -4,3 -1,4 -1,4 3,0 5,-1 6,1 2,2 0,5 -1,6 -7,2 -5,-11 -23,1 -8,5 -21,2 -31,2 -7,0 -10,2 -14,3 -5,0 -7,-3 -15,-2 -5,1 -11,1 -16,1 -6,-1 -4,-2 -6,-3 -3,-1 -2,1 -5,2 -2,-1 -4,-3 -6,-3 -2,0 -4,2 -6,3 -6,2 -15,-4 -14,2 3,2 3,-2 6,2 -3,1 -8,2 -11,0 1,-3 4,-7 7,-7 5,0 9,2 13,0 5,-2 6,-10 16,-13 3,3 4,4 7,6 -1,1 -2,1 -3,2 -2,6 9,1 9,1zm-92 8c2,4 3,2 3,6 -9,1 -12,-1 -19,-3l-1 -5c-3,0 -3,1 -7,2 -2,0 -5,-1 -8,-1 -5,0 -6,4 -9,6l-11 -3c1,-3 2,-4 4,-5 2,1 1,2 3,3 2,-1 2,-1 3,-4 -5,-3 -14,0 -21,-3 -9,-3 -9,-5 -14,-11 -3,-1 -5,1 -8,-1 -1,-1 -2,-4 -3,-5 -3,-3 -8,-1 -10,-7 3,-2 4,-3 9,2 2,2 5,4 8,6 5,4 10,8 17,11 5,2 6,2 12,2 3,0 2,1 5,2 7,3 39,5 44,3 0,-1 0,-1 -2,-1 -2,-2 -7,-1 -9,-1 -11,2 -30,-3 -33,-6 -1,-1 -2,-3 -4,-4 -1,-2 -1,-2 -3,-3 -2,-3 -3,-5 -6,-7 -2,-2 -5,-6 -7,-7 -4,-2 -7,1 -10,3 -6,-4 -1,-9 -11,-6 -4,1 -5,1 -7,2 -3,2 -3,2 -7,3l-1 -3 -5 -1c-1,-4 -1,-5 0,-8 3,-1 5,3 10,3 5,0 3,-2 6,-7l0 -1c4,1 4,2 6,4 2,-2 0,-2 3,-2 4,1 1,5 8,8 2,1 5,2 8,2 13,2 7,-5 11,-8 8,4 -7,19 22,31 17,8 29,3 47,3 3,7 5,5 10,10l-2 1c-7,-1 -7,-6 -17,-5 2,2 5,2 8,3 3,1 4,2 5,5 -12,6 -8,-4 -17,-3zm-132 -32c0,-5 1,-8 3,-11 1,-3 3,-7 5,-8 4,3 4,7 2,12 -2,7 -1,8 -2,14 -5,33 -22,19 -12,-4l2 4c5,-1 5,-3 7,-6l-5 -1zm275 22c0,-4 5,-6 7,-8 11,-11 7,-10 13,-18 3,-6 5,0 10,-3 7,-4 12,-7 22,-8 9,-1 19,0 26,3 8,4 5,7 15,16 3,4 8,14 10,19 4,8 8,13 8,23 0,8 9,11 10,20 -2,2 -3,3 -6,3 -2,-3 -1,-4 -2,-7 -2,-5 -3,1 -4,-16 -1,-7 -3,-6 -5,-11 -1,-3 -2,-7 -4,-10 -2,-3 -4,-5 -6,-9 -2,-3 -3,-6 -5,-9 -2,-4 -9,-13 -13,-15 -2,1 -1,0 -2,2 -11,-10 -15,-4 -20,-2 -4,1 -8,-1 -13,1 -15,5 -15,16 -21,21 -4,2 -14,8 -20,8zm-66 -36c0,-4 1,-5 5,-6 -1,4 -2,5 -5,6zm-180 -10c3,-2 5,-2 9,-2 1,6 -1,11 -6,12 -1,-3 -3,-6 -3,-10zm-10 -2c0,1 0,3 0,4l2 3c-2,2 -2,2 -4,4 -1,1 -1,2 -2,3 -3,-3 -5,-11 -3,-16 3,0 5,1 7,2zm280 12c0,-8 -4,-26 10,-18 3,2 4,4 10,7 4,2 9,3 12,5 -3,0 -5,1 -9,1 -3,0 -5,-1 -9,0 -5,2 -9,5 -14,5zm-235 -8c-3,-12 16,-11 17,-10 6,4 2,16 -8,15l-2 -6c-3,0 -3,1 -7,1zm-81 50c0,-1 0,1 -1,-2 -2,-8 6,-22 9,-28 3,-5 13,-21 17,-24 -1,5 -4,10 -7,13 -8,7 -10,25 -14,35 -1,1 -1,3 -2,4 -1,2 0,1 -2,2zm87 -35c-7,-2 -2,-7 -15,-6 -2,-2 -4,-5 -7,-7 -2,-2 -6,-4 -8,-6 1,-1 2,-2 3,-3 3,1 3,5 5,7 4,4 5,2 10,2 5,0 11,8 12,13zm67 -8c2,-3 6,-7 9,-10 3,-5 4,-8 11,-6 2,5 0,8 -3,11 -1,2 -2,3 -4,5 -2,1 -4,1 -4,3 4,2 9,-1 14,0 -2,5 -7,12 -12,13 -7,3 -15,3 -24,3 3,-5 13,-10 16,-15l-3 -4zm35 -3c-4,-2 -11,2 -13,-2 -1,-5 5,-7 8,-9 12,-5 11,0 23,-9 3,-4 6,-5 12,-2 7,2 3,4 3,11 1,9 3,3 -2,12 -2,3 -3,7 -3,12 -8,-1 -2,-1 -7,-5l-2 -1c2,-5 4,-8 5,-12 3,-8 -4,-10 -6,-5 -1,3 1,4 -1,7 -1,1 -5,3 -2,13 0,3 1,3 2,5 3,3 -1,-3 1,0 2,6 -7,6 0,11 -1,3 -1,5 0,7 0,2 1,2 2,3l2 1c-2,5 -9,5 -10,0 -2,-4 7,-3 -2,-10 0,-6 9,-15 -2,-12 0,-2 0,-5 2,-7 2,-2 2,0 3,-4 1,-5 1,-9 0,-13 -4,0 -10,0 -12,2 2,3 3,2 7,4 -2,10 -7,6 -7,19 0,4 -2,0 -2,6 3,3 3,2 8,1 0,10 -19,14 -23,12l1 -1c3,-2 9,-4 11,-9 -1,-1 0,-1 -2,-1 -2,-1 1,0 -1,-1 0,0 -1,0 -1,0 0,0 0,0 0,0 0,-1 -1,-1 -1,-1 3,-2 6,-4 6,-9l-5 -1c2,-2 8,-5 9,-8 0,-2 0,-2 -1,-4zm0 -18c-2,3 -6,4 -12,4 -10,0 -8,-4 -7,-7 4,0 -2,2 9,1 4,0 7,0 10,2zm-141 8c-10,4 -19,-13 2,-13 0,4 -1,3 -1,7 0,2 0,4 -1,6zm23 1c1,-5 15,-29 18,-14 -9,8 -9,14 -18,14zm197 -18c-1,1 -2,2 -4,3 -13,5 -13,4 -21,13 -7,7 -16,2 -5,-6 3,-3 5,-2 9,-4 6,-3 6,-7 21,-6zm-211 1c1,-1 12,-1 15,-1 -1,4 -6,11 -9,12 -7,2 -8,-7 -6,-11zm40 9c-6,-13 6,-10 12,-11 3,-1 3,-2 6,-2 -1,7 -9,13 -18,13zm236 1c-7,-4 -9,-6 -17,-2 -2,-5 -6,-7 -7,-13 5,1 13,6 18,9 20,10 50,9 57,21 3,6 7,10 11,16 6,9 13,24 15,36 1,4 1,8 1,12 -1,7 0,6 1,11 -3,-1 -4,-3 -6,-7 -3,-5 0,-5 -1,-11 -1,-5 -5,-12 -7,-17 -11,-23 -9,-29 -33,-39 -3,-2 -4,-3 -7,-5 -8,-2 -16,0 -19,-5 -3,-4 -1,-3 -6,-6zm-90 -19c7,0 15,-5 22,-7 12,-2 17,-4 17,10 -8,-2 -8,-3 -16,-1 -21,6 -26,13 -38,17 0,-6 8,-20 12,-24l3 5zm-66 0c0,0 0,0 0,0l-1 -1c-2,-2 -6,-4 -7,-9 6,7 19,10 32,7 11,-3 23,-8 36,-5 -1,2 -2,2 -5,3l-15 7c0,0 0,0 0,0l2 0c0,0 1,0 1,0 5,2 1,3 6,4l3 -3 2 1c-1,3 -1,4 -2,7l-20 -2c2,-4 4,-2 7,-6 -9,1 -16,7 -24,9 -8,2 -22,4 -24,-6 2,2 7,5 11,4 -1,-1 -1,-2 -3,-3 -3,-3 -6,-4 -9,-10 3,2 6,5 10,3zm22 -7c4,-2 7,-6 14,-6 4,0 14,0 17,2 -5,2 -11,0 -17,1 -5,1 -9,2 -14,3z"/>
    <path class="fil1" d="M272 614l6 1c-2,-6 0,-5 1,-11 1,-6 0,-8 6,-9 1,8 -2,14 -3,21 3,1 8,3 12,3 1,-1 1,-2 1,-4 -1,1 -10,5 -9,-3 0,-1 0,-3 1,-4 2,0 3,0 5,1 0,0 0,0 0,0 0,0 1,0 1,1l2 -5c-3,2 -10,3 -6,-7 0,0 0,0 0,0 5,0 5,1 7,4 1,-1 2,-5 4,-1 2,2 -1,14 -4,18l5 2c-2,-5 0,-13 2,-16l8 18c1,-2 2,-7 3,-10 0,-2 0,-4 0,-6 1,-3 2,-3 3,-4l-3 -1 -1 7c-1,3 -1,4 -2,6l-5 -9c-3,-8 -2,-7 -7,-7 -5,-2 -18,-6 -22,-6 1,5 -1,12 -2,17 -1,4 -1,1 -3,4z"/>
    <path class="fil1" d="M159 544c2,4 2,3 1,8 0,3 -1,6 -2,9 -2,5 -1,2 -2,2 -1,-1 2,-3 -2,0 -2,2 -2,3 -7,3 -1,-4 -2,-6 -1,-9 4,-1 4,-1 7,1l-1 -6c-4,3 0,3 -7,3l0 -7c4,-1 6,-2 8,1l0 -4 -13 2 2 5c1,4 2,12 0,16 4,0 6,-1 10,-1 3,-1 5,-1 9,-1 -3,-2 0,-9 1,-15 3,4 6,15 9,18 2,-6 3,-13 4,-17 1,-2 1,-1 2,-3l-5 -1c3,2 -1,13 -2,14 -1,-4 -3,-7 -4,-11 -2,-5 -2,-6 -7,-7z"/>
    <path class="fil1" d="M347 607c1,1 2,2 3,2 -1,21 -2,17 -3,19l5 0c-3,-1 -1,-11 -1,-15 2,1 2,2 3,4 2,4 6,11 9,12l1 -8c2,3 2,6 6,8 4,2 8,0 9,-3 -2,1 -6,3 -8,1 -4,-3 -5,-16 2,-18 5,-1 6,2 7,5l0 -6c-4,1 -9,-4 -14,3l-2 5c0,-3 1,-6 -1,-7 -1,0 -1,0 -1,0l0 6c0,2 0,5 0,7 -5,-3 -8,-18 -15,-15z"/>
    <path class="fil1" d="M413 619c-2,-1 -7,-11 -9,-14l-4 1c2,2 2,1 3,9 0,4 0,7 0,12l4 -1c-3,-4 -3,-7 -3,-14 4,3 5,11 9,13 2,-4 2,-6 3,-10l2 -4c0,0 0,0 0,0 0,5 3,9 0,13l6 0c-2,-4 -5,-15 -2,-21 -6,0 -5,0 -6,6 -1,4 -2,8 -3,10z"/>
    <path class="fil1" d="M377 208c-7,1 -8,-1 -8,-7 0,-6 3,-7 7,-5l1 12zm-2 -21c1,3 2,0 2,7 -17,-2 -14,19 -3,17 6,-2 2,1 8,-2 0,0 0,0 0,0 0,0 0,0 -1,-1 -2,-3 -1,-14 -1,-23 -2,0 -3,1 -5,2z"/>
    <path class="fil1" d="M336 191l3 9 -7 0 4 -9zm-12 19l7 -1c-2,-2 -2,1 0,-7l9 0c3,4 3,5 1,8l9 0c-7,-7 -8,-17 -13,-25 -2,2 -5,9 -6,12 -5,14 -3,7 -7,13z"/>
    <path class="fil1" d="M315 186c3,3 3,1 3,6 0,4 1,13 -3,15 -2,2 -6,2 -8,1 -3,-2 -3,-6 -3,-11 0,-10 -1,-7 3,-11l-9 0c5,2 2,5 3,15 0,7 2,10 9,9 7,0 9,-3 10,-9 1,-8 -2,-10 3,-16l-8 1z"/>
    <path class="fil1" d="M260 608c0,-3 1,-5 1,-8 5,1 10,4 6,8 -3,2 -4,1 -7,0zm2 -10c0,-2 1,-5 2,-7 4,0 7,2 6,6 -2,4 -5,2 -8,1zm-7 10c5,2 13,6 16,1 1,-3 0,-6 -1,-7l0 -1c2,-1 2,-2 3,-4 1,-6 -9,-9 -14,-9 2,4 0,9 -1,15 -1,2 -1,2 -1,3 0,0 -1,0 -1,1l-1 1z"/>
    <path class="fil1" d="M430 602c8,-5 12,14 7,17 -8,5 -13,-13 -7,-17zm0 -2c-12,6 -5,26 7,21 11,-5 4,-27 -7,-21z"/>
    <path class="fil1" d="M218 115c2,2 6,4 8,6 3,2 5,5 7,7 13,-1 8,4 15,6 -1,-5 -7,-13 -12,-13 -5,0 -6,2 -10,-2 -2,-2 -2,-6 -5,-7 -1,1 -2,2 -3,3z"/>
    <path class="fil1" d="M439 209c-2,-1 -4,0 -6,0 -11,0 -11,-21 0,-22 4,0 5,2 7,4l2 3 0 -8c-7,2 -7,-3 -14,1 -4,1 -7,5 -8,10 -1,11 10,17 19,12z"/>
    <path class="fil1" d="M278 281c2,1 33,0 37,-1l-1 -3c-3,-1 -15,1 -19,1 -11,0 -17,-1 -17,3z"/>
    <path class="fil1" d="M575 538l2 1c0,7 2,15 -1,21 13,-1 14,-1 14,-7 -3,4 -3,5 -9,4 0,-3 -1,-6 0,-8 3,-1 4,-2 6,1l0 -6c-2,1 -2,3 -7,2l-1 -6c1,-1 1,-1 1,-1l5 -1 3 2 0 -4 -13 2z"/>
    <path class="fil1" d="M511 591c0,10 -9,2 -9,2l1 6c5,-2 7,-2 11,-5 1,-14 -18,-5 -13,-16 7,-1 5,1 8,3l-1 -6c-5,1 -12,3 -10,10 2,4 10,3 13,6z"/>
    <path class="fil1" d="M455 614c-4,3 -7,2 -10,-2l1 6c3,-1 9,-1 11,-4 2,-5 -1,-8 -4,-9 -8,-3 -8,-1 -8,-7 5,-2 5,-1 8,3l0 -6c-6,0 -14,2 -10,9 4,6 12,1 12,10z"/>
    <path class="fil1" d="M423 278c0,4 4,3 8,3l21 -1c4,0 6,1 6,-2 -3,-2 -12,-1 -17,-1 -5,0 -15,0 -18,1z"/>
    <path class="fil1" d="M461 592c2,1 2,0 3,3 1,4 4,14 2,17l13 -4 0 -5c-3,5 -1,5 -8,6l-3 -8c5,-1 4,-2 8,0l-1 -5c-2,2 -3,2 -8,3l-1 -6c1,-2 4,-3 6,-3l3 2 -1 -4c-3,1 -10,3 -13,4z"/>
    <path class="fil1" d="M519 583l0 -7c2,1 4,3 5,6l-5 1zm-2 10l4 -1c-1,-2 -2,-1 -2,-7l6 -3c1,1 2,1 3,2 1,3 0,0 0,2l1 2 4 -2c-2,-4 -5,-4 -8,-8 -2,-3 -5,-7 -8,-8l0 23z"/>
    <path class="fil1" d="M388 620c0,-4 0,-5 2,-7l2 7 -4 0zm-6 9l5 -1c-2,-3 -2,-3 0,-6l7 -1c1,3 3,4 1,7l6 -1c-1,-1 -2,-2 -3,-4 -3,-4 -5,-12 -7,-14 0,-1 0,-1 -1,-1 -1,1 -6,17 -8,21z"/>
    <path class="fil1" d="M387 199c0,-3 1,-4 4,-4 3,0 2,1 3,4l-7 0zm10 6l-3 3c-4,2 -6,-3 -7,-7l10 -1c1,-9 -12,-9 -13,1 -1,11 12,14 13,4z"/>
    <path class="fil1" d="M320 255c0,-3 -11,-11 -14,-13l-11 -9c-4,-3 -9,-3 1,5 4,4 20,17 24,17z"/>
    <path class="fil1" d="M322 625l6 0c-1,0 -1,0 -1,0l-1 -4c0,-2 1,-4 1,-5 4,-1 4,0 6,2l0 -6c-2,2 0,2 -5,2l0 -8c5,-1 6,1 8,4l1 -4c-4,-1 -8,-2 -13,-3 2,5 1,4 0,11 -1,11 -1,6 -2,10 0,1 -1,-1 0,1z"/>
    <path class="fil1" d="M422 254c2,1 2,1 4,-1l23 -19c2,-2 2,-2 1,-4 -5,2 -10,8 -14,11 -2,2 -2,2 -4,3 -2,2 -9,8 -10,10z"/>
    <path class="fil1" d="M524 626c2,-4 6,-21 7,-27 -7,2 -6,3 -7,11 0,5 -1,10 0,16z"/>
    <path class="fil1" d="M477 587c1,4 7,14 4,21l14 -5 -1 -5c-1,4 -4,6 -8,6 -3,-5 -5,-14 -3,-19 -3,1 -4,1 -6,2z"/>
    <path class="fil1" d="M449 324c-4,-2 -14,-12 -18,-12 0,4 0,2 1,4 4,3 18,14 21,14 0,-5 -1,-3 -4,-6z"/>
    <path class="fil1" d="M408 166c1,2 4,2 7,2 4,-1 1,-2 7,-1 5,1 4,0 8,-1 5,-1 4,2 8,0 0,0 0,0 -1,-1l-5 -1c-3,-1 -6,-1 -9,0 -3,0 -13,1 -15,2z"/>
    <path class="fil1" d="M360 81c5,-1 9,-2 14,-3 6,-1 12,1 17,-1 -3,-2 -13,-2 -17,-2 -7,0 -10,4 -14,6z"/>
    <path class="fil1" d="M238 601l11 5 2 -3c-10,-1 -9,0 -7,-12 2,-9 2,-5 5,-8l-6 -2c1,3 -2,16 -4,19 -3,4 1,-2 -1,1z"/>
    <path class="fil1" d="M163 368c0,-9 5,-25 1,-32 0,3 1,7 0,9 -2,3 -3,1 -3,7 0,5 0,12 2,16z"/>
    <path class="fil1" d="M346 516c1,-1 2,-2 3,-3l3 -4 -5 -3c-2,3 -3,4 -6,6 -2,1 -4,2 -6,4l11 0z"/>
    <path class="fil1" d="M337 627l6 0c-2,-4 -1,-10 0,-16 0,-4 0,-3 2,-5l-6 0c1,5 1,12 -1,17 -1,2 -1,2 -1,4z"/>
    <path class="fil1" d="M308 316c-3,-2 -3,-1 -5,1 -2,1 -20,12 -13,12 1,0 16,-10 18,-13z"/>
    <path class="fil1" d="M298 301c1,0 0,0 2,0 3,1 7,-3 10,-4 5,-3 10,-4 8,-7 -2,0 -4,1 -5,2 -2,1 -4,2 -5,3 -6,2 -9,3 -10,6z"/>
    <path class="fil1" d="M409 238c3,0 14,-13 14,-17 -4,-1 -7,6 -12,12 -2,2 -3,2 -2,5z"/>
    <path class="fil1" d="M448 258l-1 0c-1,0 0,0 -2,0l-7 3c-3,1 -10,2 -9,5 1,2 10,-3 15,-4 4,-1 4,-1 4,-4z"/>
    <path class="fil1" d="M316 226c-2,2 0,4 4,10 1,2 2,3 3,4 2,2 2,4 4,4 1,-1 3,1 -1,-5 -2,-2 -2,-3 -3,-5 -2,-2 -5,-8 -7,-8z"/>
    <path class="fil1" d="M417 247c3,0 15,-12 13,-14 -2,-2 -6,4 -7,6 -3,2 -7,4 -6,8z"/>
    <path class="fil1" d="M301 261c1,4 13,8 17,8 -1,-4 -1,-2 -8,-5 -2,-2 -7,-5 -9,-3z"/>
    <path class="fil1" d="M426 293c1,2 13,8 16,8 0,-3 0,-3 -7,-6 -2,-1 -6,-4 -9,-2z"/>
    <path class="fil1" d="M336 237c1,-3 0,-6 -1,-9 -1,-3 -2,-6 -4,-7 -2,3 0,6 1,9 3,7 1,6 4,7z"/>
    <path class="fil1" d="M378 153c0,-4 0,-12 -2,-15 -1,2 -5,11 2,15z"/>
    <path class="fil1" d="M397 235c3,-1 5,-3 6,-6 2,-2 4,-5 2,-7 -2,0 -2,2 -4,5 -2,3 -4,4 -4,8z"/>
    <path class="fil1" d="M348 235c1,-3 0,-4 -1,-7 -1,-1 -1,-2 -1,-3 -1,-3 0,-2 -3,-2 -1,2 1,7 2,10 1,3 1,2 3,2z"/>
    <path class="fil1" d="M168 374c0,-3 -3,-5 -5,-6 0,6 4,12 6,16 0,-2 0,-8 -1,-10z"/>
    <path class="fil1" d="M320 453c-10,-6 -12,-5 -16,-2l16 2z"/>
    <path class="fil1" d="M372 507c1,2 2,5 3,7 2,7 1,4 3,5 2,-3 -3,-11 -6,-12z"/>
    <path class="fil1" d="M224 179c4,-1 5,-1 6,-4 -2,-1 -2,-2 -5,-2l-1 6z"/>
    <path class="fil1" d="M387 127c3,-1 4,-2 5,-6 -4,1 -5,2 -5,6z"/>
   </g>
   <g>
    <path class="fil1" d="M335 647c0,-5 7,-8 14,-8 -1,7 -7,8 -14,8zm40 8l-5 0c-2,0 -5,-1 -10,-4 -3,-1 -4,-4 -7,-6 -2,1 -3,2 -6,4 -10,6 -16,-1 -24,-7 -8,2 -21,11 -30,-6 -2,-4 -2,-3 -7,-4 -15,-4 -36,-13 -43,-15 0,12 3,20 3,31 -8,-1 -16,-13 -19,-20 -2,-4 -11,-21 -12,-26 -3,1 -2,2 -4,5 -10,-3 -9,-11 -14,-15 -1,2 -1,3 -1,5 0,1 2,6 -2,6 -4,0 -9,-10 -17,-16 -2,-1 -1,-1 -3,-1 0,5 -3,10 -3,16 -12,0 -25,-4 -35,-10 -3,-2 -5,-2 -6,-6 -2,-6 -3,-16 -4,-23 -1,-5 -2,-10 -2,-15l0 -7c0,-4 2,-7 6,-10 16,-7 47,4 60,4 -2,-8 -11,-34 -15,-45 -3,-7 -5,-15 -6,-23 -1,-6 -3,-15 -3,-21 1,-19 0,-36 -3,-55 -1,-12 -4,-24 -5,-36 0,-14 -1,-27 -1,-41 0,-14 -4,-26 -4,-37 0,-9 2,-15 2,-23 0,-10 -2,-17 -2,-26 0,-21 2,-44 5,-64 1,-11 3,-15 7,-23l5 -10c2,-3 4,-7 6,-10 8,-10 22,-22 36,-26 13,-3 31,-1 45,-1 10,0 9,-4 12,-4 4,0 8,0 12,2 -1,8 -7,16 -10,21 -8,11 -13,29 -1,39 2,2 14,5 16,5 3,0 10,-3 12,-5 -5,-1 -8,-2 -10,-5 4,-7 20,-8 21,-16 -2,-1 -4,-1 -7,-1 5,-7 12,-11 17,-17 8,-10 7,-5 5,-19l0 -18c0,-3 1,-5 2,-8 3,3 5,6 8,8 13,11 26,-2 36,-3 7,0 18,0 26,2 11,3 6,10 19,7 9,-1 22,-10 30,-2 9,8 -2,21 -2,20 0,0 -1,0 -1,0 -2,-1 -2,-1 -4,-3 -2,2 -5,3 -8,5 -12,7 -43,24 -43,38 0,7 4,15 9,18 13,8 50,2 61,-5 20,-11 11,-45 11,-57 0,-12 1,-12 16,-3 12,7 28,11 42,14 23,6 28,18 39,36 13,23 13,35 15,60 2,16 1,36 2,54 0,7 -1,11 -1,18l0 56c0,7 -1,11 -1,18 0,35 -4,53 -10,83 -5,27 -7,51 -16,78 -3,8 -7,19 -8,28 5,-1 12,-6 17,-9 5,-3 11,-6 17,-7 13,-4 24,-1 34,7 5,4 2,9 0,19 -2,14 -2,29 -16,35 -3,2 -9,3 -14,3 -5,0 -9,-2 -14,-3 -4,-1 -7,3 -11,5 -4,1 -6,5 -9,7 -2,0 -4,-2 -6,-2 -4,1 -9,7 -10,10 -1,7 -6,37 -12,37 -3,0 -6,-1 -7,-5 -1,-6 1,-14 -2,-26 -3,1 -4,2 -7,4 -3,1 -4,1 -8,2l-33 8c-4,2 -4,12 -9,12 -4,0 -6,-3 -12,-3 0,17 -17,10 -19,10 -6,0 -7,11 -17,11 -14,0 -12,-8 -18,-10 -3,2 -4,6 -7,8 -3,2 -6,4 -8,4zm-20 -17c1,0 14,1 16,3 0,1 1,6 -1,8 -3,3 -11,-3 -15,-11zm-28 -1c4,0 5,0 7,1l1 5 -4 1c-2,-2 -3,-3 -4,-7zm66 1c2,-2 16,-8 10,9 -3,0 -4,-1 -6,-3 -2,-2 -3,-3 -4,-6zm-16 12c-4,-3 -4,-4 -3,-10 2,-1 10,-2 12,-2 -2,5 -4,11 -9,12zm30 -4c-1,-9 3,-9 11,-11 -2,5 -6,10 -11,11zm-97 -5c-1,-3 -1,-3 0,-6 4,-1 7,0 11,1 -3,2 -5,6 -11,5zm-14 -9l12 3c0,3 -1,3 -3,5 -5,1 -8,-4 -9,-8zm134 6c-2,-2 -2,-2 -3,-6l13 -2c-1,5 -4,7 -10,8zm89 -4c-3,-5 -3,-11 -2,-17 0,-11 -1,-11 6,-15 0,8 1,27 -4,32zm-299 -28c3,1 5,3 8,4 4,1 5,2 7,6 2,4 5,14 4,20 -6,-3 -17,-22 -19,-30zm304 20c-1,-6 0,-11 0,-16 1,-8 0,-9 7,-11 -1,6 -5,23 -7,27zm-389 -41c8,-4 26,-9 34,-3l-1 14c-12,0 -26,-5 -33,-11zm184 -1l4 -27c6,7 10,8 10,15 0,3 -2,8 -3,10 -2,3 -8,2 -11,2zm222 4c-8,10 -56,26 -73,31 -27,6 -58,14 -86,16 -9,1 -17,0 -26,0 -26,0 -44,-2 -69,-8 -27,-6 -56,-17 -72,-31 0,-4 4,-10 5,-13 3,-3 6,-7 10,-8 0,10 -3,12 -6,19l11 6c1,-2 2,-2 2,-4 -4,1 -5,1 -8,-1 0,-4 1,-5 1,-8 3,0 3,0 5,2l1 2 1 -4c-4,-2 -9,-1 -4,-9 6,0 4,1 7,5l1 -3 -11 -6c0,-2 0,-1 2,-3 4,-2 12,-3 16,-2l16 10c13,6 24,8 40,10 38,5 54,8 95,4 11,-1 55,-6 63,-12 9,-5 26,-11 36,-15 14,-5 20,-10 33,7 3,4 8,11 10,15zm33 -10c1,-3 7,-6 11,-7 3,-1 6,-2 9,-2 3,0 6,0 8,2 -3,9 -17,12 -28,7zm-124 0c-6,-1 -15,-8 -9,-13 6,-6 10,6 9,13zm123 -27c1,3 1,3 1,7 -3,1 -1,1 -4,2 0,0 -6,-10 3,-9zm-150 -9c4,2 11,11 13,16 1,4 1,9 1,13 1,7 3,6 5,10 -3,2 -7,1 -11,1 -3,-10 -8,-29 -8,-40zm-70 47c-4,0 -6,-5 -7,-10 -1,-5 1,-8 1,-14 -1,-6 -2,-25 1,-31 1,4 3,10 3,14 -1,7 -3,6 0,14 1,4 3,8 4,13 0,3 1,5 0,8 0,3 0,4 -2,6zm214 -39c-1,-2 -1,-4 -1,-7 2,-1 2,-1 4,-1 3,5 1,7 -3,8zm-226 -28c4,4 2,26 2,33 0,12 1,23 2,34 -13,-2 -13,0 -8,-30 1,-11 -4,-31 4,-37zm-137 24c-3,3 -11,5 -19,13 -6,5 -9,11 -10,22 -6,-3 -10,-6 -19,-6 -8,0 -14,3 -21,4 -4,-7 -5,-20 -7,-29 -1,-6 -3,-9 3,-12 13,-7 33,-4 46,-1 5,2 23,7 27,9zm393 2l1 -8c6,1 6,8 -1,8zm-226 -8c1,-1 4,-3 6,-4 1,6 1,22 3,27 1,2 2,2 3,4 0,2 0,6 0,8 0,6 -1,9 -2,14 -13,-4 -7,-29 -10,-49zm-78 41c-23,0 -55,-19 -46,-31 5,-1 8,4 12,4 4,-1 0,-3 6,-2 13,3 7,-2 13,-2 6,0 12,4 23,1 0,-4 -6,-16 5,-13 0,7 -4,16 -6,22 -3,7 -4,15 -7,21zm216 -37l0 5c6,-2 0,-5 12,-6 6,-1 11,-1 17,0 -1,4 -4,7 1,9 3,-6 0,-9 9,-7 -1,3 -3,6 0,8 3,-1 1,-1 3,-4 4,-1 6,0 7,3 -1,3 -4,3 -2,8 4,-1 2,-2 4,-4 3,2 5,5 5,9 -3,2 -3,1 -5,4 -1,3 0,4 2,5 4,-2 -1,-3 4,-5 0,2 1,5 1,8 -2,1 -8,5 -10,6 -1,-9 3,-18 -3,-24 -4,-4 -15,-6 -23,-4 1,5 1,0 2,4 0,2 0,2 1,4 1,1 3,3 4,1 1,-2 -1,-1 -1,-4 5,-3 10,-2 14,1 -3,2 -7,5 -5,10 6,0 1,-3 5,-6l3 1 -1 9c-4,1 -7,1 -7,6 4,1 1,0 5,-2 3,5 1,9 -3,11 -5,-3 -13,-18 -19,-24 -14,-15 -21,-3 -31,-4 1,-1 4,-5 3,-9 0,-1 -5,-5 -6,-6 2,-7 12,-13 19,-7l-5 4zm-119 -24c6,0 6,3 7,9 1,5 1,10 4,13 -1,-6 -1,-9 1,-13 8,0 11,14 11,23 1,6 -1,11 0,17 0,5 3,9 2,15 -5,-2 -4,-12 -7,-17 -1,-4 -3,-2 -4,-8 -1,-3 -1,-8 -3,-10 0,0 0,0 0,0l-2 1c-1,1 -1,1 -2,2 1,7 6,9 8,15 1,5 0,5 0,10 -1,6 2,3 3,8 -4,0 -5,-2 -7,-4 -1,-2 -3,-5 -4,-7 -2,-5 -3,-10 -5,-16 -3,-12 -5,-25 -2,-38zm74 19c14,-7 10,-11 16,-13 4,6 3,20 -9,17 -1,0 -3,-1 -4,-2l-3 -2zm127 19l5 1c0,-4 -1,-7 1,-9 3,2 3,7 5,10 1,3 1,0 2,3 -3,1 -15,0 -20,1 -6,1 -11,3 -14,6l-2 -6c3,-3 6,-3 7,-6 4,-6 0,-8 -2,-10 2,-10 -4,-10 -10,-5 0,4 3,9 3,14 0,0 0,-1 0,-1 0,1 -2,-6 -6,-9 -2,-3 -5,-3 -8,-6 11,-8 43,-23 58,-10 1,8 -2,23 -5,29 -2,-2 -3,-6 -4,-10 0,0 0,0 0,0 1,0 13,-11 -7,-13 2,4 1,6 0,11 -1,7 0,6 -3,10zm-152 -27c4,3 7,6 11,10 8,8 2,0 13,5 13,6 17,14 23,2 0,-1 1,-1 1,-2l1 -1c4,3 8,7 10,12 -1,2 -4,7 -5,8 -3,2 -32,11 -34,11 -5,-6 -8,-12 -12,-20 -2,-5 -8,-19 -8,-25zm-109 7c4,5 5,9 3,16 -4,1 -5,1 -9,2 0,-6 1,-11 2,-17 0,-5 -2,-15 1,-19 3,0 5,4 6,7 2,6 0,8 -3,11zm95 -17c0,0 1,0 1,0 0,1 0,1 0,1l1 1c0,0 1,1 1,1 4,7 11,21 13,29 -5,0 -10,-7 -12,-11 -4,-7 -4,-12 -4,-21zm-70 10c9,4 13,15 14,24 1,8 1,18 1,26 0,3 0,6 -4,5l0 4c-5,0 -5,-3 -8,-5 2,-3 7,0 1,-15 -1,-2 -4,-10 -4,-13 0,-4 -1,-1 2,-3 -3,-9 0,-5 2,-11 0,-2 -3,-10 -4,-12zm-43 52l-15 -2c0,-8 1,-5 4,-10 2,-3 0,-3 1,-6 0,-3 1,-1 3,-3l-1 -6c13,-8 6,-5 6,-14 0,-3 0,-8 1,-11 0,-8 0,-12 10,-11 4,15 -6,48 -9,63zm72 -59c1,3 3,27 5,33 0,3 1,5 2,7 1,5 2,2 3,7 0,6 0,13 -4,16 -5,-5 -6,-37 -7,-48 -1,-6 -4,-13 1,-15zm59 5l11 -1c3,17 -10,6 -11,1zm26 -1c-1,5 -4,7 -9,8 -1,-2 -5,-9 -3,-12 2,-2 9,0 12,4zm-224 38c-16,3 -21,5 -31,22 -2,3 -3,9 -5,12 -6,-3 -10,-11 -4,-17 6,-6 2,-5 6,-7 7,-4 0,-5 7,-7 5,-1 1,0 5,-3 3,-3 3,0 4,-5 -6,-1 -7,2 -10,4 -2,1 -3,1 -5,3 -1,1 -2,3 -4,4 -2,2 -1,0 -3,4 -2,3 -1,3 -3,5 -7,5 2,4 -9,6l-2 7c-6,-4 -8,-12 3,-17 0,-5 0,-6 4,-8 8,-3 4,-2 7,-6 3,-3 15,-6 18,-7 -3,-6 -9,-2 -13,-1 -2,1 -5,2 -7,3 -3,2 -2,4 -4,6 -2,1 -4,2 -6,4 -3,2 -2,3 -4,6 -2,2 -4,2 -5,5 -1,2 0,4 -2,7 -10,-1 -2,-14 0,-17 10,-15 22,-15 32,-21 4,-2 5,-4 10,-4 6,0 6,3 11,1 -1,-5 -6,-3 -10,-5 4,-5 7,2 14,0 -2,-5 -6,-4 -10,-6 6,-5 6,1 12,-2 -2,-3 -4,-3 -8,-4 2,-4 5,-9 12,-5 6,4 3,8 0,13 -4,9 -8,24 0,30zm128 -38c-4,17 -14,9 -11,-6 2,-15 14,-10 11,6zm116 7c4,1 8,-3 11,-5l5 4 -4 2c-1,0 -3,0 -4,1 -3,2 -2,3 -4,6 -3,-2 -5,-3 -7,-8 -2,-3 -1,-8 0,-12 6,-3 10,0 12,4 -3,2 -10,4 -9,8zm-210 -10l16 7c2,1 2,1 1,4 -7,1 -15,-7 -17,-11zm17 -2c4,-1 8,-1 13,-1l0 9c-3,-1 -5,-2 -8,-3 -6,-3 -4,-2 -5,-5zm-34 0c9,2 30,14 32,25 -22,0 -19,-5 -28,-8 0,3 1,5 2,7l-9 -2 -3 3c-4,-1 -6,-2 -7,-5l11 1c2,-6 -5,-6 1,-14 6,2 16,11 21,11 -4,-3 -18,-14 -20,-18zm146 -5c2,2 8,9 10,12 4,8 2,20 7,37 1,4 5,12 4,17 -12,-2 -13,-20 -13,-30 0,-14 -5,-24 -8,-36zm-165 -14c2,4 3,8 6,11 3,4 7,3 10,8l-7 6c-2,-3 -2,-5 -5,-7 -4,-2 -6,-2 -11,-2 0,-6 5,-14 7,-16zm195 18c3,-3 11,-5 16,-5 -2,10 -13,8 -16,5zm27 -4c4,-2 14,-2 19,-2 -2,4 -17,16 -19,2zm24 1c0,-7 2,-15 7,-17 3,2 3,7 2,10 -2,4 -5,6 -9,7zm-143 -3l-11 0c2,-2 4,-3 6,-4 3,-2 4,-3 6,-6l5 3 -3 4c-1,1 -2,2 -3,3zm26 -9c3,1 8,9 6,12 -2,-1 -1,2 -3,-5 -1,-2 -2,-5 -3,-7zm-17 18c-7,-5 3,-14 7,-18 3,-2 3,-3 6,0 -3,3 -2,-2 -8,8 -2,3 -3,8 -5,10zm15 -20c-4,-3 -4,-5 -1,-9 3,0 5,1 5,4 0,3 -2,5 -4,5zm20 -2c-4,-1 -9,-2 -6,4 2,4 4,6 6,10 -8,-2 -10,-4 -10,-12 -6,0 -2,0 -5,0 0,0 0,-1 0,-1 1,-7 1,-4 -2,-9 4,-2 6,-4 9,-6 2,-2 5,-6 9,-6 9,0 2,16 -1,20zm-43 -19c5,1 18,8 20,10 -2,5 -3,3 -2,10 -7,0 -13,1 -17,-4 -3,-5 -4,-10 -1,-16zm-123 45c-3,-13 4,-44 8,-57 6,-22 7,-50 10,-57 2,21 0,44 2,66 0,14 -3,17 -8,26 -2,5 -3,8 -5,12 -1,2 -2,4 -3,6 -1,2 -2,4 -4,4zm273 -84c1,2 1,4 1,6 1,14 2,35 4,47 7,-2 10,-23 11,-30l8 -33c1,32 1,64 2,95 0,7 0,7 -4,10 -5,-4 -15,-11 -19,-15 2,-7 5,-9 3,-19 -1,-7 -4,-10 -7,-16 -1,-5 1,-37 1,-45zm-191 30l126 0c-3,2 -4,2 -6,4 -4,-3 -5,-4 -9,1 -7,-2 -4,-4 -11,2 -4,-2 -3,-3 -8,1 0,-1 0,-1 0,-1 -1,2 0,-1 -3,-2 -1,-1 -3,-1 -5,0 -3,0 -5,1 -7,3 -3,2 -8,9 -14,7 -7,-1 -13,-12 -22,-8 -4,1 -4,3 -6,5 -2,-4 -6,-7 -10,-4 -4,-4 -4,-4 -12,-3 -3,-4 -5,-6 -9,-1l-4 -4zm44 -7c4,-2 26,-1 31,0 1,6 -3,5 -15,5 -13,0 -17,2 -16,-5zm-17 1c1,6 -8,4 -14,4 -4,0 -15,2 -17,-2 -4,-6 11,-4 13,-4 5,0 14,-2 18,2zm91 4c-7,0 -26,2 -31,-1l0 -4c4,-2 28,-2 32,0l-1 5zm-47 -14c1,4 0,5 -4,5 -6,0 -23,1 -28,-1 -1,-6 4,-5 14,-5 5,0 15,-1 18,1zm-79 5l-1 -6c7,-1 11,0 17,0 6,0 13,-2 15,3 -2,5 -8,3 -14,3 -6,0 -11,1 -17,0zm91 -5c4,-3 10,-1 16,-1 6,0 12,-2 16,2 -1,5 -7,4 -16,4 -16,0 -16,1 -16,-5zm-104 -3l8 0c1,4 6,14 7,19 -2,-2 -2,-3 -4,-4 -4,-1 -3,1 -4,-1 0,-16 -7,-4 -7,-14zm192 2c5,-2 9,-1 15,-1 5,63 -10,59 -48,59 -6,0 -12,0 -18,0l-15 0c-4,-1 3,0 -1,-1 0,0 0,0 -1,0 0,0 0,0 0,0l1 -1c12,-2 5,-3 11,-1 6,2 9,1 10,-4 6,-1 10,0 8,-7 5,0 12,-2 10,-7 12,-2 9,-1 11,-9 2,0 4,-1 6,-2 2,-2 1,-4 2,-6 1,-2 5,0 6,-7 1,-3 0,-1 2,-3 3,-3 9,-3 1,-10zm-222 6c2,2 5,3 8,4 -1,6 1,8 6,10 1,5 -1,6 9,7 0,11 9,3 10,9 1,7 -1,5 10,7 3,6 -2,6 8,6 2,12 7,5 14,3l2 4 6 -2 1 4c-3,1 -13,1 -18,1 -65,0 -65,-1 -62,-60 4,0 9,-1 12,1 -2,3 -5,1 -6,6zm181 8c-3,-8 8,-19 12,-21 2,7 -1,8 -4,12 -2,3 -4,8 -8,9zm-116 -19l-16 -2c4,-3 6,-4 16,2zm113 7c-4,-5 1,-9 3,-11 3,-4 4,-8 9,-9 3,6 0,7 -3,12 -2,3 -4,7 -9,8zm-67 -19c-3,-7 6,-10 8,-4 2,7 -6,11 -8,4zm168 98c-3,0 -6,-1 -8,-3 -1,-1 -5,-138 2,-150 4,12 3,18 8,36 2,3 2,4 5,6 4,3 3,2 2,8 -3,33 -5,71 -9,103zm-67 -101c3,1 2,2 5,3 2,0 4,-1 6,-2 -2,5 -7,5 -8,10 1,1 1,0 3,1l3 1c-3,4 -11,5 -11,10 3,1 5,0 9,0 -2,6 -14,5 -15,12 4,2 6,-5 10,-1 -4,5 -14,1 -15,7 4,0 5,-1 8,0 -2,6 -9,0 -14,5 2,1 4,1 5,3 -3,4 -14,1 -20,4 3,6 9,-1 10,6 -5,1 -14,-1 -17,1 2,4 4,1 7,4 -1,1 -1,1 -2,1 -1,0 -1,0 -2,0 -4,0 -6,-2 -11,-1 2,5 9,2 7,7 -6,4 -11,-8 -18,-6 0,4 3,2 4,6 -5,-1 -5,-6 -11,-7 1,6 6,5 3,11 -4,-1 -9,-6 -8,-13 4,-12 2,-15 7,-15 1,7 -3,6 -2,12 6,-2 4,-13 12,-14 0,7 -3,7 -3,13 6,0 7,-14 13,-15 3,6 -7,13 -4,18 6,-3 7,-18 14,-20 0,5 -2,6 0,9 6,-2 2,-13 10,-15 2,3 1,4 3,6 5,-4 -1,-13 5,-16 5,4 0,7 5,10 3,-4 -2,-10 0,-17 7,1 1,4 7,5 3,-4 1,-12 2,-18 1,1 0,1 1,1 3,2 0,1 3,2 1,-4 -1,-5 -1,-8zm-199 8c3,-1 2,-2 4,-3 1,6 -1,13 1,18 7,-1 1,-5 8,-5 2,8 -4,13 0,17 5,-4 0,-7 5,-10 1,1 2,0 2,7 1,4 0,5 2,8 3,-1 1,-2 4,-4 7,2 4,11 10,14 1,-3 0,-5 0,-8 7,2 7,18 15,19 0,-6 -7,-12 -5,-18 2,0 3,1 4,3 3,4 5,11 8,13 3,-4 -3,-6 -2,-14 7,1 5,12 12,14 1,-6 -6,-8 -2,-12 3,2 10,10 10,15 -1,4 -7,13 -12,13 -3,-6 3,-5 4,-11 -7,0 -7,7 -11,7 0,-4 2,-1 4,-5 -6,-3 -12,8 -19,5 1,-6 5,-1 7,-7 -5,-2 -10,3 -14,0 3,-3 6,0 6,-4 -5,-2 -14,2 -17,-2 2,-5 7,0 10,-4 -5,-5 -17,0 -20,-5 2,-2 3,-1 6,-3 -2,-2 -2,-2 -7,-2 -5,0 -6,1 -7,-3 3,-1 2,0 6,0 5,-1 -5,2 2,-1 0,0 0,0 0,0 -1,-2 0,-2 -3,-2 -5,-1 -10,0 -12,-5 5,-2 6,3 10,2 -1,-6 -13,-5 -16,-12l9 0c0,-7 -9,-5 -11,-12l6 0c0,-5 -5,-5 -7,-10 10,2 3,2 11,-1 -1,4 -2,3 -1,8zm148 7l-90 0c4,-2 9,-2 13,-6 3,-2 3,-8 5,-13l18 0c0,7 -1,15 8,15 9,0 8,-7 8,-15l18 0c3,9 1,16 19,18 5,0 11,-1 15,-3 5,-3 2,-8 1,-14l13 0c0,2 -8,11 -9,14 -6,6 -3,4 -19,4zm-227 -25c9,2 5,2 9,-3 1,7 1,18 2,26 3,44 10,31 12,43 1,11 1,15 9,19 1,5 1,10 0,15 0,7 -1,8 -6,10 -3,-8 -6,-12 -10,-23 -4,-11 -11,-29 -12,-40 0,-6 1,-11 1,-17 0,-5 -3,-8 -3,-13 -1,-3 0,-5 0,-8 0,-3 -1,-6 -2,-9zm207 -92l0 95 -18 0c0,-11 -1,-47 0,-56 1,-6 16,-36 18,-39zm-29 92l0 -96 6 0 0 96 -6 0zm-103 5c3,-2 1,-1 3,-4 1,-1 2,-1 3,-2 -1,3 -5,9 -6,11 -3,-1 -6,-3 -8,-5 3,0 3,1 6,0 -1,-7 -9,-1 -8,-9 4,1 0,1 4,2 7,1 4,-8 10,-10 0,4 -1,6 -2,9 -1,1 -3,4 -3,5 0,3 1,2 1,3zm203 -17c6,2 4,10 10,10 4,0 1,-1 5,-3 0,10 -7,3 -8,11l6 -2c-2,3 -5,5 -8,6 -2,-2 -6,-7 -6,-11l5 5c3,1 0,0 1,0 1,-2 -1,-4 -2,-7 -2,-3 -2,-6 -3,-9zm-8 37l-9 0 -3 -16c-1,-6 -1,-4 -12,-4l-12 0c-5,1 -3,5 -9,4 -5,-3 -4,-14 -4,-22l0 -78c11,-2 14,2 24,11l55 45c4,3 3,4 3,13l0 47 -12 0c2,-2 2,-2 2,-6l-4 -2c5,-3 6,-3 5,-9l4 -3c0,-6 -2,-1 0,-8 1,-4 -1,-5 -3,-8 1,-2 3,-6 2,-9 -4,-3 -6,0 -9,2 -2,-3 -4,-5 -8,-5 -1,2 -1,3 -2,5 -1,3 -3,2 -4,4 0,3 1,4 1,6 0,3 -2,3 -2,6 0,3 2,4 1,7 -1,3 -2,0 -3,4 -1,4 -1,11 -1,16zm-200 -45c-3,-1 -3,-2 -7,-2 -2,4 -2,5 -1,10 1,6 -2,4 0,10 0,3 0,4 0,6 0,3 1,2 2,5 1,7 -2,2 3,8 -3,5 -2,3 0,8l-8 0c0,-16 0,-33 0,-49 0,-9 2,-8 10,-15 4,-4 9,-7 13,-12l19 -16c7,-7 15,-11 21,-17 4,-4 8,-10 16,-9 2,8 1,41 1,51 0,11 2,44 -1,51 -10,2 -3,-6 -16,-4 -3,4 -2,7 -3,12 -2,2 -10,7 -12,8 -3,1 -15,0 -19,0 -1,-5 4,-12 -4,-15 0,-1 1,-4 1,-4 0,-2 -1,-2 -2,-4 2,-2 3,-3 4,-6l-4 -2c1,-7 3,-8 -3,-12l0 -6c-5,0 -8,1 -10,4zm238 -15c1,0 8,12 8,12 2,4 1,16 1,21 0,7 1,36 -1,41 -2,-4 -8,-66 -8,-74zm13 69c-3,-8 -1,-49 0,-59 1,-7 5,-16 6,-25 2,-7 1,-23 3,-28 2,24 0,94 -9,112zm-149 -31l-17 0 0 -94c3,6 16,34 17,39 1,6 0,19 0,27 0,9 0,18 0,28zm-192 -42c4,2 5,11 7,17 4,15 14,47 14,59 0,10 -2,11 0,22 4,17 17,41 20,53 -5,-1 -13,-2 -15,-7 -3,-7 -5,-10 -5,-19l-3 -1c-1,-6 -5,-16 -7,-22 -8,-20 -1,-14 -1,-23 -3,-2 -6,-2 -7,-7 0,-3 3,-4 4,-9 -1,-1 -2,-2 -4,-4 2,-16 2,-12 0,-30 -1,-5 -4,-26 -3,-29zm32 -19c5,8 0,5 9,12 1,1 1,1 1,1 -1,8 -3,12 -2,20 4,3 4,4 4,10l1 41c1,9 2,17 3,26 1,7 3,17 3,25 -3,-13 -15,-31 -17,-61 -2,-20 4,-29 0,-56 -1,-6 -3,-12 -2,-18zm-38 -2c2,1 5,3 5,6 1,2 1,8 1,10 -2,-4 -6,-10 -6,-16zm7 -18c3,4 5,11 7,15 5,10 7,1 6,17 0,7 0,14 0,21 -1,8 1,16 1,22 -3,-5 -9,-27 -10,-35 -4,-17 -5,-21 -4,-40zm63 29l9 0c1,3 -1,6 -3,9 -3,-1 -2,-2 -5,-1 -3,9 4,-1 2,25 0,9 -1,18 -2,27 -2,8 -5,14 -8,22 -1,4 -2,9 -2,13 -1,4 0,9 -1,14 -11,-46 -2,-47 -5,-61 -2,-9 -3,-10 -2,-20 1,-8 5,-10 7,-16 10,-26 1,-26 8,-39 8,-14 5,-13 7,-17 2,7 3,17 2,25 0,15 -5,12 -7,19zm-70 -11c-2,-4 -2,-11 -2,-16 0,-6 1,-4 3,-7 1,-2 0,-6 0,-9 4,7 -1,23 -1,32zm32 59c-8,1 -8,-11 -8,-18 -1,-18 2,-62 5,-79 3,3 2,9 5,15 2,3 2,2 2,5 -9,25 0,68 -4,77zm307 -39c-2,-1 -1,0 -2,-1 0,0 -1,-2 -2,-2 -5,-6 -3,-31 -2,-37 0,-12 1,-11 6,-18 4,-5 2,-12 5,-18 5,5 3,17 7,21 1,2 2,2 3,3 1,1 1,1 2,2 -4,12 -5,16 -7,29 0,8 -1,16 -2,24 -1,2 -1,4 -4,6 -4,-19 0,-40 -1,-60 -2,2 -4,8 -4,11 -1,3 0,9 0,13 1,6 2,22 1,27zm-157 -57l17 0 -1 36 -16 -36zm33 36l0 -36c5,-1 11,-1 16,0 0,2 -6,15 -7,18l-8 16c-1,1 0,1 -1,2zm28 -17c0,17 0,79 1,84 2,8 12,12 15,6 0,-1 0,-1 1,-2 0,0 0,-1 0,-1l0 -1c11,1 6,15 -7,13 -21,-4 -16,-22 -17,-48l1 -80 18 0 0 10c-3,3 -3,2 -7,2l-1 -4c4,4 4,0 4,-3 -10,0 -8,-4 -8,24zm-60 -27c3,-2 42,-1 49,-1l0 4 -49 0 0 -3zm-16 6c-1,6 -6,4 -9,2l0 -10 19 0c1,29 0,59 0,88 0,14 3,30 -7,36 -5,3 -11,5 -17,3 -7,-2 -8,-11 1,-12l2 6c14,2 14,-5 14,-18 0,-19 2,-89 0,-98l-7 0c-1,5 1,5 4,3zm-121 48l-6 -16c-1,-3 1,-15 1,-20 0,-8 -2,-13 -1,-20 1,-5 3,-12 6,-16 2,3 5,11 8,15 3,4 -1,5 -3,17 -4,14 -3,34 -5,40zm16 -43c0,1 11,12 2,23 -3,-1 -3,-1 -7,-1 -1,7 3,2 3,8l-2 0c0,0 -1,0 -1,0 0,3 1,5 0,8 0,3 -1,5 -1,7 -1,6 -1,12 -3,16l-4 1c0,-5 6,-52 8,-62 2,-9 7,-6 11,-17 2,-3 3,-8 5,-10 3,5 3,12 1,18 -3,11 -3,11 -12,9zm98 -29l95 0 0 13 -95 0 0 -13zm-131 -13c4,2 4,9 5,14 1,6 2,14 -3,16 -1,-1 -1,0 -3,-6 -1,-5 -1,-20 1,-24zm27 2c2,4 1,15 1,20 -7,-6 -6,-15 -2,-19 1,-1 0,-1 1,-1zm-18 20c-1,-8 -2,-20 3,-25 4,6 1,22 -3,25zm-29 -32c5,-1 4,1 8,5 3,2 3,3 5,7 4,6 3,15 3,22 0,14 1,37 -4,48 -8,-2 -17,-25 -20,-36 -3,-16 -5,-37 1,-51 1,0 1,0 1,1l2 7c2,19 2,60 9,69 9,0 5,-8 3,-14 -3,-14 -9,-47 -8,-58zm65 13c3,-2 2,-3 5,-4 3,7 -3,1 1,9l-2 3c3,3 1,2 0,5 0,4 2,1 0,7 -3,-3 -3,-10 -4,-15 0,-2 0,-3 -1,-5 -2,6 -4,5 -6,9 -2,3 -3,8 -6,10l2 -21c1,-10 3,1 5,-18 1,-2 1,-5 1,-7 1,-8 1,-5 3,-6 5,5 2,25 2,33zm311 29c-6,-5 -5,-31 -12,-36 -10,5 -3,43 -9,53 -5,-1 -4,-8 -5,-12 -1,-13 1,-37 -5,-43 -8,7 1,26 0,37 -3,-2 -4,-5 -5,-9l-3 -9c-1,-1 -1,-1 -1,-1 -5,6 -8,23 -12,29l2 -51c4,0 7,5 12,2 4,-3 4,-6 12,-3 11,4 11,4 20,-8 4,0 6,2 8,4 9,7 11,-1 7,30l-3 21c0,1 0,1 -1,2 0,-9 -2,-44 -5,-49 -5,6 3,33 0,43zm22 -64c5,0 5,4 5,13 0,5 1,13 0,17 -1,5 -2,2 -3,6 0,2 2,4 2,7 1,14 0,11 -3,15 3,5 4,1 3,9 -1,5 -1,8 -1,13 0,7 0,19 -1,25 -3,2 -4,1 -6,4 2,3 4,-1 5,8 0,2 0,5 0,6 -1,4 -1,4 -4,4 -2,0 -6,-1 -2,7 2,4 3,6 4,10 -3,1 -3,0 -4,1 -1,6 2,10 2,15 -1,10 -5,8 -8,10 1,5 2,2 1,9 -1,3 -1,6 -1,10 -1,4 -3,4 -3,8 1,4 3,5 2,10l-7 1c1,6 5,6 6,12l-6 0c0,4 1,5 1,10 0,7 -1,5 -4,9 0,0 3,10 1,15 -2,3 -1,1 -4,2 0,10 -1,5 -2,10 -1,3 0,6 -2,9 -5,-8 2,-72 3,-90 0,-7 -1,-11 4,-15 14,-11 8,-40 12,-65 3,-11 5,-20 6,-33 1,-12 1,-24 3,-36 3,-17 0,-21 0,-32l1 -4zm-410 29c-2,-2 -5,-4 -5,-9 1,-4 2,-8 3,-11 4,1 5,3 8,4 -2,3 -3,1 -4,7 -1,3 -1,7 -2,9zm53 -3c2,-2 3,-3 4,-5 0,-2 1,-4 1,-6 2,-5 3,-8 7,-9 6,9 -5,27 -14,28 -9,-14 -6,-31 2,-28 1,7 -3,15 0,20zm133 -36c7,6 6,28 13,32 3,-9 0,-31 4,-38 1,11 0,29 9,35 7,4 5,-2 11,-1 0,6 -3,8 -2,15 7,0 8,-5 14,-6l-3 14 -44 0c-1,-11 -4,-4 -7,-11 -2,-3 -3,-10 -3,-14l9 4c-2,-7 -4,-23 -1,-30zm-169 9l4 5c2,3 1,15 8,17 8,-4 0,-23 12,-23 4,7 1,13 -1,20 -2,6 -5,14 -12,12 -6,-2 -24,-27 -11,-31zm-19 1l0 -12c14,-1 18,19 6,20 -4,-4 1,-4 -6,-8zm75 -3c4,-4 4,-14 4,-21 1,0 1,0 1,1 3,4 4,23 -6,24 -3,-7 -4,-13 -4,-22 10,1 2,14 5,18zm-20 7c-3,-1 -5,-5 -6,-9 -2,-3 -4,-9 -2,-13 2,1 1,-1 3,6 1,2 2,3 4,5 6,-3 3,-8 7,-14 7,0 4,9 2,13 -1,5 -4,10 -8,12zm-29 -35c-1,8 -1,17 3,22 7,-2 4,-12 7,-17 3,1 8,9 7,14 -1,5 -8,7 -14,7 -12,0 -7,-3 -8,-11 0,-7 -4,-13 5,-15zm377 37c5,0 3,0 6,3 0,3 -1,5 -2,9 -1,10 2,22 0,34 -2,14 -6,2 -7,38 -1,14 -7,70 -13,78 -6,-2 -8,-21 -10,-29 -2,-13 -4,-23 -5,-36 0,-4 -4,-13 -3,-15 0,-4 3,-11 4,-16 3,-11 3,-25 5,-35 5,8 7,52 6,63 -2,11 -7,57 2,62 2,-13 2,-28 3,-41 0,-8 -1,-14 -1,-22 0,-4 4,-6 8,-14 3,-7 9,-55 9,-67l-2 -8c0,-2 0,-1 -1,-2l-2 5c-7,-1 -13,-7 -16,-13 -5,2 -7,14 -12,18 -5,-2 -8,-6 -15,-6 -2,3 -2,7 -5,9 -3,1 -8,0 -11,-2 -4,-4 -4,-17 -2,-24l6 3c1,11 -3,19 3,19 1,-5 -1,-11 0,-16 1,-4 5,-9 8,-10 6,0 4,3 11,2 0,13 -3,17 3,17 3,-5 -3,-14 1,-21 2,-2 10,-10 13,-11 1,1 1,3 4,4 0,0 0,0 0,0l2 0c1,8 -2,19 2,25l6 0c0,-12 -1,-15 -4,-25 0,-4 7,-10 13,-16 8,-9 4,-8 6,-12 4,3 3,15 3,21 1,7 2,17 -4,21 -7,-4 -3,-16 -8,-21 -2,3 -2,25 -1,31zm-404 -39c4,-1 6,2 8,5 -1,0 -1,0 -2,0 -1,0 0,-1 -2,0l0 4c5,1 8,-3 10,-5 4,-4 0,-6 5,-8 2,7 -3,21 -8,23 -7,3 -12,-11 -11,-19zm70 -11c0,3 -1,11 1,13 4,-2 1,-10 6,-15 7,3 7,19 -4,20 -11,2 -13,-17 -3,-18zm270 6c4,-1 15,10 19,0 3,-6 1,-5 4,-7 1,10 -4,18 -10,21 -11,5 -16,-8 -13,-14zm-143 30c-7,-1 -7,-6 -13,-8 2,10 4,14 2,25 -5,-2 -5,-5 -12,-6 2,4 4,2 4,9 1,3 1,7 1,11 3,20 5,11 6,18l-23 0c-1,7 0,13 0,20 -1,9 -3,7 -8,12 -7,6 -14,12 -22,18 -10,9 -20,18 -32,27 -4,4 -8,8 -10,9l0 -169c4,-2 157,0 183,0 10,0 54,-1 61,0 2,26 1,56 1,82 0,27 0,56 -1,83l-62 -50c-6,-4 -7,-4 -7,-13 1,-7 1,-12 0,-19l-20 0c3,-5 5,-5 7,-15 1,-6 2,-14 0,-20l-3 4c0,-1 0,0 -1,-1 -3,-4 -6,-18 -11,-22 -1,1 -2,3 -3,5 -3,-4 -5,-8 -8,-11 -8,-8 -4,-6 -7,-11 -3,1 -2,2 -4,3 -2,-5 -1,-8 0,-13 -17,1 -16,26 -18,32zm-170 -41c5,2 2,6 4,11 4,-1 3,-6 5,-10 1,4 3,8 3,13 -1,19 -23,-7 -12,-14zm373 -10c4,2 6,5 7,8 3,5 3,7 0,12l-5 0c-1,4 -2,10 -5,12 -4,4 -9,-1 -14,-1 -7,12 -8,17 -25,11 -4,4 -6,13 -12,11 -7,-1 -9,-9 -7,-17 12,1 4,7 9,13 2,-2 1,-5 2,-8 4,-3 6,-1 10,-7 2,-3 4,-8 5,-12 5,4 2,13 2,18 8,-2 -3,-12 10,-13l1 4c6,-2 9,-13 11,-20l5 4c5,-3 6,-8 6,-15zm-398 5l3 4c11,1 7,-1 14,-3 1,7 -2,18 -9,18 -6,-1 -13,-12 -8,-19zm47 23c2,-3 1,-7 3,-10 5,1 8,5 8,11 -12,2 -5,4 -13,4 -4,-7 -7,-11 -7,-22 3,-1 2,-3 6,-4l0 2c1,3 -1,9 1,15 0,3 0,4 2,4zm11 -18c3,-5 2,-7 6,-11 8,4 0,12 -3,15 -7,6 -12,-3 -10,-11 5,1 4,3 7,7zm340 -10l-2 0c-1,10 -2,9 -13,8 0,7 -1,16 -8,16 -7,0 -14,-6 -11,-13 5,-2 7,1 15,-4l0 -8c6,-2 6,1 11,0 1,-4 1,-8 4,-11 3,3 5,6 4,12zm-53 1c1,-8 6,-14 9,-19 2,1 2,2 2,4l1 14c1,6 2,15 -1,19 -4,4 -11,1 -14,-2 -5,-4 -3,-6 2,-12 4,5 -1,10 7,11l-1 -17 -5 2zm-345 1c-4,-19 7,-10 9,-10 4,-1 3,-2 8,-1 3,8 -6,17 -17,11zm80 4c-5,-1 -17,-17 -9,-23 3,2 8,18 9,23zm293 -1c-6,1 -9,1 -12,-3 -4,-7 2,-6 6,-7 5,-1 6,-4 10,-6 2,-1 3,-1 5,-3 2,-2 1,-2 4,-3 1,1 1,2 1,6 0,2 0,4 -1,6 -3,1 -4,-3 -11,-2 -1,5 1,7 -2,12zm-324 -11c4,-4 1,-13 8,-12 3,8 -4,15 -10,16 -2,-4 -6,-12 1,-15 0,4 -1,8 1,11zm-10 -7c8,10 -3,28 -15,18 -5,-5 -6,-7 -2,-15 3,-7 3,-11 11,-11 2,6 0,6 0,13 2,-2 3,-4 6,-5zm48 27l-12 -34 275 0c0,3 -6,14 -8,17 -1,3 -8,16 -9,17l-246 0zm282 -35c3,7 -3,11 -9,11 0,-12 -1,-8 -2,-13 3,1 9,1 11,2zm28 6c-2,3 -7,-5 -8,-8 1,-1 4,-1 6,2 2,1 3,4 2,6zm-84 -10c3,-1 7,-3 11,-4 2,2 2,4 11,3 5,-1 7,-2 10,1 -3,3 -12,2 -16,2 -5,0 -13,0 -16,-2zm-247 -3c3,0 3,1 5,2 -1,3 -2,3 -6,4l1 -6zm-62 14c-2,-10 -1,-12 2,-20 4,1 4,3 8,4 3,1 6,2 8,2 -1,5 -2,10 -5,13 -3,4 -7,3 -13,1zm276 -10c-5,-2 -17,1 -23,2 -4,0 -8,1 -13,0 -4,0 -7,-1 -11,-1 -8,1 -7,0 -12,-2 -5,-1 -7,2 -10,2l-1 -4c9,1 5,1 8,-2 13,8 6,-1 17,2 12,4 12,1 19,0 6,0 14,2 20,1 4,-1 6,-2 9,-2 6,0 4,1 7,4 1,0 9,-8 13,1 -4,0 -8,1 -12,1 -10,1 -6,1 -11,-2zm-253 -2c-1,-3 0,-9 2,-12 2,3 7,14 -2,12zm164 -3c0,3 -1,3 -2,4 -3,0 -3,-1 -4,-2 -4,1 -5,1 -9,-1 1,-8 7,-1 8,-1 3,-2 3,-4 7,0zm-135 8c1,-4 1,-4 4,-6 3,-3 1,-2 5,-4 -1,6 -3,10 -9,10zm304 -9c3,-6 12,-5 10,3 -4,2 -7,-2 -10,-3zm-111 -5c2,-1 12,-2 15,-2 3,-1 6,-1 9,0l5 1c1,1 1,1 1,1 -4,2 -3,-1 -8,0 -4,1 -3,2 -8,1 -6,-1 -3,0 -7,1 -3,0 -6,0 -7,-2zm-203 -4c12,2 13,14 -1,19 -12,4 -14,-20 -5,-22 2,8 -7,17 1,19 2,-5 1,-11 5,-16zm133 4c0,-1 0,0 1,-1 16,-12 23,-2 10,1 -3,0 -7,0 -11,0zm188 -3c-7,3 -10,6 -14,-2 -3,-5 -4,-11 2,-14 6,2 2,4 7,7 4,3 5,4 5,9zm6 -2c-4,-3 -4,-6 -4,-11 6,1 7,7 4,11zm-322 -1c-10,-12 1,-17 8,-9 4,5 0,6 7,10 7,4 15,6 22,10 -3,0 -11,-1 -15,-1 -4,-1 -3,-2 -5,-4 -3,-2 -13,-1 -17,-6zm88 -2c2,-1 4,-2 6,-3 4,-2 6,-8 20,-10l2 7c-4,3 -21,6 -28,6zm244 25c-5,0 -12,-12 -10,-19 4,-3 6,-1 10,0 -1,-5 -8,-10 -6,-17 3,1 5,9 7,12 2,4 7,7 5,13 -2,-1 -1,-1 -3,-3l-2 -3c0,0 0,0 0,-1 0,6 3,13 -1,18zm-164 -30c-7,-4 -3,-13 -2,-15 2,3 2,11 2,15zm-184 -6c2,-3 2,-6 5,-8 7,4 4,25 -8,17l2 -13 1 4zm34 -3c2,0 5,0 8,0 3,-1 2,-2 7,-2 2,5 3,9 2,16 -3,-2 -6,-5 -8,-8 -4,-3 -5,-3 -9,-6zm174 21c4,5 -1,7 14,4 11,-1 15,4 27,-1 5,-3 15,0 26,-4 9,-4 11,-14 19,-20 5,-4 21,-10 30,-8 1,6 -1,6 -6,7 -2,1 -6,4 -7,6 -1,3 1,6 1,10 1,4 3,4 5,8l-5 1c0,-8 -2,-5 -6,-8 -2,-8 4,-11 -4,-14 0,4 2,7 -2,9 -1,1 -3,1 -4,2 -4,3 -1,4 -1,4 3,0 5,-1 6,1 2,2 0,5 -1,6 -7,2 -5,-11 -23,1 -8,5 -21,2 -31,2 -7,0 -10,2 -14,3 -5,0 -7,-3 -15,-2 -5,1 -11,1 -16,1 -6,-1 -4,-2 -6,-3 -3,-1 -2,1 -5,2 -2,-1 -4,-3 -6,-3 -2,0 -4,2 -6,3 -6,2 -15,-4 -14,2 3,2 3,-2 6,2 -3,1 -8,2 -11,0 1,-3 4,-7 7,-7 5,0 9,2 13,0 5,-2 6,-10 16,-13 3,3 4,4 7,6 -1,1 -2,1 -3,2 -2,6 9,1 9,1zm-92 8c2,4 3,2 3,6 -9,1 -12,-1 -19,-3l-1 -5c-3,0 -3,1 -7,2 -2,0 -5,-1 -8,-1 -5,0 -6,4 -9,6l-11 -3c1,-3 2,-4 4,-5 2,1 1,2 3,3 2,-1 2,-1 3,-4 -5,-3 -14,0 -21,-3 -9,-3 -9,-5 -14,-11 -3,-1 -5,1 -8,-1 -1,-1 -2,-4 -3,-5 -3,-3 -8,-1 -10,-7 3,-2 4,-3 9,2 2,2 5,4 8,6 5,4 10,8 17,11 5,2 6,2 12,2 3,0 2,1 5,2 7,3 39,5 44,3 0,-1 0,-1 -2,-1 -2,-2 -7,-1 -9,-1 -11,2 -30,-3 -33,-6 -1,-1 -2,-3 -4,-4 -1,-2 -1,-2 -3,-3 -2,-3 -3,-5 -6,-7 -2,-2 -5,-6 -7,-7 -4,-2 -7,1 -10,3 -6,-4 -1,-9 -11,-6 -4,1 -5,1 -7,2 -3,2 -3,2 -7,3l-1 -3 -5 -1c-1,-4 -1,-5 0,-8 3,-1 5,3 10,3 5,0 3,-2 6,-7l0 -1c4,1 4,2 6,4 2,-2 0,-2 3,-2 4,1 1,5 8,8 2,1 5,2 8,2 13,2 7,-5 11,-8 8,4 -7,19 22,31 17,8 29,3 47,3 3,7 5,5 10,10l-2 1c-7,-1 -7,-6 -17,-5 2,2 5,2 8,3 3,1 4,2 5,5 -12,6 -8,-4 -17,-3zm-132 -32c0,-5 1,-8 3,-11 1,-3 3,-7 5,-8 4,3 4,7 2,12 -2,7 -1,8 -2,14 -5,33 -22,19 -12,-4l2 4c5,-1 5,-3 7,-6l-5 -1zm275 22c0,-4 5,-6 7,-8 11,-11 7,-10 13,-18 3,-6 5,0 10,-3 7,-4 12,-7 22,-8 9,-1 19,0 26,3 8,4 5,7 15,16 3,4 8,14 10,19 4,8 8,13 8,23 0,8 9,11 10,20 -2,2 -3,3 -6,3 -2,-3 -1,-4 -2,-7 -2,-5 -3,1 -4,-16 -1,-7 -3,-6 -5,-11 -1,-3 -2,-7 -4,-10 -2,-3 -4,-5 -6,-9 -2,-3 -3,-6 -5,-9 -2,-4 -9,-13 -13,-15 -2,1 -1,0 -2,2 -11,-10 -15,-4 -20,-2 -4,1 -8,-1 -13,1 -15,5 -15,16 -21,21 -4,2 -14,8 -20,8zm-66 -36c0,-4 1,-5 5,-6 -1,4 -2,5 -5,6zm-180 -10c3,-2 5,-2 9,-2 1,6 -1,11 -6,12 -1,-3 -3,-6 -3,-10zm-10 -2c0,1 0,3 0,4l2 3c-2,2 -2,2 -4,4 -1,1 -1,2 -2,3 -3,-3 -5,-11 -3,-16 3,0 5,1 7,2zm280 12c0,-8 -4,-26 10,-18 3,2 4,4 10,7 4,2 9,3 12,5 -3,0 -5,1 -9,1 -3,0 -5,-1 -9,0 -5,2 -9,5 -14,5zm-235 -8c-3,-12 16,-11 17,-10 6,4 2,16 -8,15l-2 -6c-3,0 -3,1 -7,1zm-81 50c0,-1 0,1 -1,-2 -2,-8 6,-22 9,-28 3,-5 13,-21 17,-24 -1,5 -4,10 -7,13 -8,7 -10,25 -14,35 -1,1 -1,3 -2,4 -1,2 0,1 -2,2zm87 -35c-7,-2 -2,-7 -15,-6 -2,-2 -4,-5 -7,-7 -2,-2 -6,-4 -8,-6 1,-1 2,-2 3,-3 3,1 3,5 5,7 4,4 5,2 10,2 5,0 11,8 12,13zm67 -8c2,-3 6,-7 9,-10 3,-5 4,-8 11,-6 2,5 0,8 -3,11 -1,2 -2,3 -4,5 -2,1 -4,1 -4,3 4,2 9,-1 14,0 -2,5 -7,12 -12,13 -7,3 -15,3 -24,3 3,-5 13,-10 16,-15l-3 -4zm35 -3c-4,-2 -11,2 -13,-2 -1,-5 5,-7 8,-9 12,-5 11,0 23,-9 3,-4 6,-5 12,-2 7,2 3,4 3,11 1,9 3,3 -2,12 -2,3 -3,7 -3,12 -8,-1 -2,-1 -7,-5l-2 -1c2,-5 4,-8 5,-12 3,-8 -4,-10 -6,-5 -1,3 1,4 -1,7 -1,1 -5,3 -2,13 0,3 1,3 2,5 3,3 -1,-3 1,0 2,6 -7,6 0,11 -1,3 -1,5 0,7 0,2 1,2 2,3l2 1c-2,5 -9,5 -10,0 -2,-4 7,-3 -2,-10 0,-6 9,-15 -2,-12 0,-2 0,-5 2,-7 2,-2 2,0 3,-4 1,-5 1,-9 0,-13 -4,0 -10,0 -12,2 2,3 3,2 7,4 -2,10 -7,6 -7,19 0,4 -2,0 -2,6 3,3 3,2 8,1 0,10 -19,14 -23,12l1 -1c3,-2 9,-4 11,-9 -1,-1 0,-1 -2,-1 -2,-1 1,0 -1,-1 0,0 -1,0 -1,0 0,0 0,0 0,0 0,-1 -1,-1 -1,-1 3,-2 6,-4 6,-9l-5 -1c2,-2 8,-5 9,-8 0,-2 0,-2 -1,-4zm0 -18c-2,3 -6,4 -12,4 -10,0 -8,-4 -7,-7 4,0 -2,2 9,1 4,0 7,0 10,2zm-141 8c-10,4 -19,-13 2,-13 0,4 -1,3 -1,7 0,2 0,4 -1,6zm23 1c1,-5 15,-29 18,-14 -9,8 -9,14 -18,14zm197 -18c-1,1 -2,2 -4,3 -13,5 -13,4 -21,13 -7,7 -16,2 -5,-6 3,-3 5,-2 9,-4 6,-3 6,-7 21,-6zm-211 1c1,-1 12,-1 15,-1 -1,4 -6,11 -9,12 -7,2 -8,-7 -6,-11zm40 9c-6,-13 6,-10 12,-11 3,-1 3,-2 6,-2 -1,7 -9,13 -18,13zm236 1c-7,-4 -9,-6 -17,-2 -2,-5 -6,-7 -7,-13 5,1 13,6 18,9 20,10 50,9 57,21 3,6 7,10 11,16 6,9 13,24 15,36 1,4 1,8 1,12 -1,7 0,6 1,11 -3,-1 -4,-3 -6,-7 -3,-5 0,-5 -1,-11 -1,-5 -5,-12 -7,-17 -11,-23 -9,-29 -33,-39 -3,-2 -4,-3 -7,-5 -8,-2 -16,0 -19,-5 -3,-4 -1,-3 -6,-6zm-90 -19c7,0 15,-5 22,-7 12,-2 17,-4 17,10 -8,-2 -8,-3 -16,-1 -21,6 -26,13 -38,17 0,-6 8,-20 12,-24l3 5zm-66 0c0,0 0,0 0,0l-1 -1c-2,-2 -6,-4 -7,-9 6,7 19,10 32,7 11,-3 23,-8 36,-5 -1,2 -2,2 -5,3l-15 7c0,0 0,0 0,0l2 0c0,0 1,0 1,0 5,2 1,3 6,4l3 -3 2 1c-1,3 -1,4 -2,7l-20 -2c2,-4 4,-2 7,-6 -9,1 -16,7 -24,9 -8,2 -22,4 -24,-6 2,2 7,5 11,4 -1,-1 -1,-2 -3,-3 -3,-3 -6,-4 -9,-10 3,2 6,5 10,3zm22 -7c4,-2 7,-6 14,-6 4,0 14,0 17,2 -5,2 -11,0 -17,1 -5,1 -9,2 -14,3z"/>
    <path class="fil1" d="M272 614l6 1c-2,-6 0,-5 1,-11 1,-6 0,-8 6,-9 1,8 -2,14 -3,21 3,1 8,3 12,3 1,-1 1,-2 1,-4 -1,1 -10,5 -9,-3 0,-1 0,-3 1,-4 2,0 3,0 5,1 0,0 0,0 0,0 0,0 1,0 1,1l2 -5c-3,2 -10,3 -6,-7 0,0 0,0 0,0 5,0 5,1 7,4 1,-1 2,-5 4,-1 2,2 -1,14 -4,18l5 2c-2,-5 0,-13 2,-16l8 18c1,-2 2,-7 3,-10 0,-2 0,-4 0,-6 1,-3 2,-3 3,-4l-3 -1 -1 7c-1,3 -1,4 -2,6l-5 -9c-3,-8 -2,-7 -7,-7 -5,-2 -18,-6 -22,-6 1,5 -1,12 -2,17 -1,4 -1,1 -3,4z"/>
    <path class="fil1" d="M159 544c2,4 2,3 1,8 0,3 -1,6 -2,9 -2,5 -1,2 -2,2 -1,-1 2,-3 -2,0 -2,2 -2,3 -7,3 -1,-4 -2,-6 -1,-9 4,-1 4,-1 7,1l-1 -6c-4,3 0,3 -7,3l0 -7c4,-1 6,-2 8,1l0 -4 -13 2 2 5c1,4 2,12 0,16 4,0 6,-1 10,-1 3,-1 5,-1 9,-1 -3,-2 0,-9 1,-15 3,4 6,15 9,18 2,-6 3,-13 4,-17 1,-2 1,-1 2,-3l-5 -1c3,2 -1,13 -2,14 -1,-4 -3,-7 -4,-11 -2,-5 -2,-6 -7,-7z"/>
    <path class="fil1" d="M347 607c1,1 2,2 3,2 -1,21 -2,17 -3,19l5 0c-3,-1 -1,-11 -1,-15 2,1 2,2 3,4 2,4 6,11 9,12l1 -8c2,3 2,6 6,8 4,2 8,0 9,-3 -2,1 -6,3 -8,1 -4,-3 -5,-16 2,-18 5,-1 6,2 7,5l0 -6c-4,1 -9,-4 -14,3l-2 5c0,-3 1,-6 -1,-7 -1,0 -1,0 -1,0l0 6c0,2 0,5 0,7 -5,-3 -8,-18 -15,-15z"/>
    <path class="fil1" d="M413 619c-2,-1 -7,-11 -9,-14l-4 1c2,2 2,1 3,9 0,4 0,7 0,12l4 -1c-3,-4 -3,-7 -3,-14 4,3 5,11 9,13 2,-4 2,-6 3,-10l2 -4c0,0 0,0 0,0 0,5 3,9 0,13l6 0c-2,-4 -5,-15 -2,-21 -6,0 -5,0 -6,6 -1,4 -2,8 -3,10z"/>
    <path class="fil1" d="M377 208c-7,1 -8,-1 -8,-7 0,-6 3,-7 7,-5l1 12zm-2 -21c1,3 2,0 2,7 -17,-2 -14,19 -3,17 6,-2 2,1 8,-2 0,0 0,0 0,0 0,0 0,0 -1,-1 -2,-3 -1,-14 -1,-23 -2,0 -3,1 -5,2z"/>
    <path class="fil1" d="M336 191l3 9 -7 0 4 -9zm-12 19l7 -1c-2,-2 -2,1 0,-7l9 0c3,4 3,5 1,8l9 0c-7,-7 -8,-17 -13,-25 -2,2 -5,9 -6,12 -5,14 -3,7 -7,13z"/>
    <path class="fil1" d="M315 186c3,3 3,1 3,6 0,4 1,13 -3,15 -2,2 -6,2 -8,1 -3,-2 -3,-6 -3,-11 0,-10 -1,-7 3,-11l-9 0c5,2 2,5 3,15 0,7 2,10 9,9 7,0 9,-3 10,-9 1,-8 -2,-10 3,-16l-8 1z"/>
    <path class="fil1" d="M260 608c0,-3 1,-5 1,-8 5,1 10,4 6,8 -3,2 -4,1 -7,0zm2 -10c0,-2 1,-5 2,-7 4,0 7,2 6,6 -2,4 -5,2 -8,1zm-7 10c5,2 13,6 16,1 1,-3 0,-6 -1,-7l0 -1c2,-1 2,-2 3,-4 1,-6 -9,-9 -14,-9 2,4 0,9 -1,15 -1,2 -1,2 -1,3 0,0 -1,0 -1,1l-1 1z"/>
    <path class="fil1" d="M430 602c8,-5 12,14 7,17 -8,5 -13,-13 -7,-17zm0 -2c-12,6 -5,26 7,21 11,-5 4,-27 -7,-21z"/>
    <path class="fil1" d="M218 115c2,2 6,4 8,6 3,2 5,5 7,7 13,-1 8,4 15,6 -1,-5 -7,-13 -12,-13 -5,0 -6,2 -10,-2 -2,-2 -2,-6 -5,-7 -1,1 -2,2 -3,3z"/>
    <path class="fil1" d="M439 209c-2,-1 -4,0 -6,0 -11,0 -11,-21 0,-22 4,0 5,2 7,4l2 3 0 -8c-7,2 -7,-3 -14,1 -4,1 -7,5 -8,10 -1,11 10,17 19,12z"/>
    <path class="fil1" d="M278 281c2,1 33,0 37,-1l-1 -3c-3,-1 -15,1 -19,1 -11,0 -17,-1 -17,3z"/>
    <path class="fil1" d="M575 538l2 1c0,7 2,15 -1,21 13,-1 14,-1 14,-7 -3,4 -3,5 -9,4 0,-3 -1,-6 0,-8 3,-1 4,-2 6,1l0 -6c-2,1 -2,3 -7,2l-1 -6c1,-1 1,-1 1,-1l5 -1 3 2 0 -4 -13 2z"/>
    <path class="fil1" d="M511 591c0,10 -9,2 -9,2l1 6c5,-2 7,-2 11,-5 1,-14 -18,-5 -13,-16 7,-1 5,1 8,3l-1 -6c-5,1 -12,3 -10,10 2,4 10,3 13,6z"/>
    <path class="fil1" d="M455 614c-4,3 -7,2 -10,-2l1 6c3,-1 9,-1 11,-4 2,-5 -1,-8 -4,-9 -8,-3 -8,-1 -8,-7 5,-2 5,-1 8,3l0 -6c-6,0 -14,2 -10,9 4,6 12,1 12,10z"/>
    <path class="fil1" d="M423 278c0,4 4,3 8,3l21 -1c4,0 6,1 6,-2 -3,-2 -12,-1 -17,-1 -5,0 -15,0 -18,1z"/>
    <path class="fil1" d="M461 592c2,1 2,0 3,3 1,4 4,14 2,17l13 -4 0 -5c-3,5 -1,5 -8,6l-3 -8c5,-1 4,-2 8,0l-1 -5c-2,2 -3,2 -8,3l-1 -6c1,-2 4,-3 6,-3l3 2 -1 -4c-3,1 -10,3 -13,4z"/>
    <path class="fil1" d="M519 583l0 -7c2,1 4,3 5,6l-5 1zm-2 10l4 -1c-1,-2 -2,-1 -2,-7l6 -3c1,1 2,1 3,2 1,3 0,0 0,2l1 2 4 -2c-2,-4 -5,-4 -8,-8 -2,-3 -5,-7 -8,-8l0 23z"/>
    <path class="fil1" d="M388 620c0,-4 0,-5 2,-7l2 7 -4 0zm-6 9l5 -1c-2,-3 -2,-3 0,-6l7 -1c1,3 3,4 1,7l6 -1c-1,-1 -2,-2 -3,-4 -3,-4 -5,-12 -7,-14 0,-1 0,-1 -1,-1 -1,1 -6,17 -8,21z"/>
    <path class="fil1" d="M387 199c0,-3 1,-4 4,-4 3,0 2,1 3,4l-7 0zm10 6l-3 3c-4,2 -6,-3 -7,-7l10 -1c1,-9 -12,-9 -13,1 -1,11 12,14 13,4z"/>
    <path class="fil1" d="M320 255c0,-3 -11,-11 -14,-13l-11 -9c-4,-3 -9,-3 1,5 4,4 20,17 24,17z"/>
    <path class="fil1" d="M322 625l6 0c-1,0 -1,0 -1,0l-1 -4c0,-2 1,-4 1,-5 4,-1 4,0 6,2l0 -6c-2,2 0,2 -5,2l0 -8c5,-1 6,1 8,4l1 -4c-4,-1 -8,-2 -13,-3 2,5 1,4 0,11 -1,11 -1,6 -2,10 0,1 -1,-1 0,1z"/>
    <path class="fil1" d="M422 254c2,1 2,1 4,-1l23 -19c2,-2 2,-2 1,-4 -5,2 -10,8 -14,11 -2,2 -2,2 -4,3 -2,2 -9,8 -10,10z"/>
    <path class="fil1" d="M524 626c2,-4 6,-21 7,-27 -7,2 -6,3 -7,11 0,5 -1,10 0,16z"/>
    <path class="fil1" d="M477 587c1,4 7,14 4,21l14 -5 -1 -5c-1,4 -4,6 -8,6 -3,-5 -5,-14 -3,-19 -3,1 -4,1 -6,2z"/>
    <path class="fil1" d="M449 324c-4,-2 -14,-12 -18,-12 0,4 0,2 1,4 4,3 18,14 21,14 0,-5 -1,-3 -4,-6z"/>
    <path class="fil1" d="M408 166c1,2 4,2 7,2 4,-1 1,-2 7,-1 5,1 4,0 8,-1 5,-1 4,2 8,0 0,0 0,0 -1,-1l-5 -1c-3,-1 -6,-1 -9,0 -3,0 -13,1 -15,2z"/>
    <path class="fil1" d="M360 81c5,-1 9,-2 14,-3 6,-1 12,1 17,-1 -3,-2 -13,-2 -17,-2 -7,0 -10,4 -14,6z"/>
    <path class="fil1" d="M238 601l11 5 2 -3c-10,-1 -9,0 -7,-12 2,-9 2,-5 5,-8l-6 -2c1,3 -2,16 -4,19 -3,4 1,-2 -1,1z"/>
    <path class="fil1" d="M163 368c0,-9 5,-25 1,-32 0,3 1,7 0,9 -2,3 -3,1 -3,7 0,5 0,12 2,16z"/>
    <path class="fil1" d="M346 516c1,-1 2,-2 3,-3l3 -4 -5 -3c-2,3 -3,4 -6,6 -2,1 -4,2 -6,4l11 0z"/>
    <path class="fil1" d="M337 627l6 0c-2,-4 -1,-10 0,-16 0,-4 0,-3 2,-5l-6 0c1,5 1,12 -1,17 -1,2 -1,2 -1,4z"/>
    <path class="fil1" d="M308 316c-3,-2 -3,-1 -5,1 -2,1 -20,12 -13,12 1,0 16,-10 18,-13z"/>
    <path class="fil1" d="M298 301c1,0 0,0 2,0 3,1 7,-3 10,-4 5,-3 10,-4 8,-7 -2,0 -4,1 -5,2 -2,1 -4,2 -5,3 -6,2 -9,3 -10,6z"/>
    <path class="fil1" d="M409 238c3,0 14,-13 14,-17 -4,-1 -7,6 -12,12 -2,2 -3,2 -2,5z"/>
    <path class="fil1" d="M448 258l-1 0c-1,0 0,0 -2,0l-7 3c-3,1 -10,2 -9,5 1,2 10,-3 15,-4 4,-1 4,-1 4,-4z"/>
    <path class="fil1" d="M316 226c-2,2 0,4 4,10 1,2 2,3 3,4 2,2 2,4 4,4 1,-1 3,1 -1,-5 -2,-2 -2,-3 -3,-5 -2,-2 -5,-8 -7,-8z"/>
    <path class="fil1" d="M417 247c3,0 15,-12 13,-14 -2,-2 -6,4 -7,6 -3,2 -7,4 -6,8z"/>
    <path class="fil1" d="M301 261c1,4 13,8 17,8 -1,-4 -1,-2 -8,-5 -2,-2 -7,-5 -9,-3z"/>
    <path class="fil1" d="M426 293c1,2 13,8 16,8 0,-3 0,-3 -7,-6 -2,-1 -6,-4 -9,-2z"/>
    <path class="fil1" d="M336 237c1,-3 0,-6 -1,-9 -1,-3 -2,-6 -4,-7 -2,3 0,6 1,9 3,7 1,6 4,7z"/>
    <path class="fil1" d="M378 153c0,-4 0,-12 -2,-15 -1,2 -5,11 2,15z"/>
    <path class="fil1" d="M397 235c3,-1 5,-3 6,-6 2,-2 4,-5 2,-7 -2,0 -2,2 -4,5 -2,3 -4,4 -4,8z"/>
    <path class="fil1" d="M348 235c1,-3 0,-4 -1,-7 -1,-1 -1,-2 -1,-3 -1,-3 0,-2 -3,-2 -1,2 1,7 2,10 1,3 1,2 3,2z"/>
    <path class="fil1" d="M168 374c0,-3 -3,-5 -5,-6 0,6 4,12 6,16 0,-2 0,-8 -1,-10z"/>
    <path class="fil1" d="M320 453c-10,-6 -12,-5 -16,-2l16 2z"/>
    <path class="fil1" d="M372 507c1,2 2,5 3,7 2,7 1,4 3,5 2,-3 -3,-11 -6,-12z"/>
    <path class="fil1" d="M224 179c4,-1 5,-1 6,-4 -2,-1 -2,-2 -5,-2l-1 6z"/>
    <path class="fil1" d="M387 127c3,-1 4,-2 5,-6 -4,1 -5,2 -5,6z"/>
   </g>
   <path class="fil2" d="M564 143l159 192 0 389 -483 0 -108 -133c1,0 2,1 3,1 10,6 23,10 35,10 0,-6 3,-11 3,-16 2,0 1,0 3,1 8,6 14,16 18,16 3,0 1,-5 1,-6 0,-2 1,-3 1,-5 5,4 4,12 15,15 1,-3 0,-4 3,-4 1,4 10,21 12,26 4,6 11,18 19,19 0,-11 -3,-19 -3,-31 7,2 28,11 43,15 5,1 5,0 8,4 8,17 21,8 29,6 8,6 14,14 25,7 2,-1 3,-3 6,-4 2,2 4,5 7,6 4,3 7,4 10,5l4 0c2,-1 5,-3 8,-5 3,-2 5,-6 7,-7 7,1 4,9 19,9 9,0 10,-11 16,-11 2,0 19,7 20,-10 5,0 8,3 12,3 4,0 5,-9 9,-12l33 -8c3,0 5,-1 7,-2 3,-2 5,-3 7,-4 3,12 1,20 3,26 1,4 3,5 6,5 6,0 11,-29 13,-36 1,-4 5,-10 9,-11 2,0 4,2 7,3 3,-3 4,-7 8,-8 4,-2 7,-6 12,-5 4,2 9,3 14,3 4,0 10,-1 13,-3 14,-6 14,-21 16,-35 2,-10 6,-15 0,-19 -10,-7 -20,-11 -33,-7 -7,1 -13,4 -18,8 -4,2 -12,7 -17,8 1,-9 6,-20 8,-28 9,-27 11,-51 16,-78 6,-30 10,-48 10,-83 0,-7 1,-11 1,-18l0 -56c0,-7 1,-11 1,-18 0,-17 0,-37 -2,-54 -2,-25 -2,-37 -15,-60z"/>
  </g>
 </g>
</svg>
